 <svg version="1.0" xmlns="http://www.w3.org/2000/svg"  width="300.000000pt" height="667.000000pt" viewBox="0 0 300.000000 667.000000"  preserveAspectRatio="xMidYMid meet">  <g transform="translate(0.000000,667.000000) scale(0.050000,-0.050000)" fill="#b54a6a" stroke="none"> <path d="M84 13325 c4 -8 260 -523 568 -1145 308 -621 730 -1479 938 -1906 208 -426 388 -784 401 -795 38 -31 30 76 -14 177 -20 48 -37 91 -37 96 0 15 60 8 62 -7 0 -8 6 -33 11 -55 5 -22 10 -56 10 -75 0 -19 6 -32 13 -30 8 2 43 -12 79 -31 95 -51 139 -162 -419 1056 -55 121 -301 625 -546 1120 -244 495 -484 985 -532 1088 -193 414 -251 512 -306 518 -29 4 -52 -3 -52 -15 0 -11 10 -21 21 -21 12 0 16 -8 10 -19 -6 -10 -3 -24 8 -30 29 -19 15 -131 -16 -131 -18 0 -24 14 -17 40 6 25 0 40 -16 40 -14 0 -30 18 -36 40 -6 22 -2 40 8 40 10 0 18 14 18 30 0 22 -22 30 -82 30 -45 0 -78 -7 -74 -15z m285 -247 c-6 -10 2 -23 18 -29 16 -7 24 -27 19 -48 -6 -21 8 -55 32 -79 23 -23 36 -54 29 -72 -7 -19 6 -47 33 -70 26 -23 40 -51 33 -69 -7 -18 -1 -31 14 -31 52 0 192 -326 150 -352 -16 -10 -20 -4 -12 16 12 31 -51 154 -93 180 -12 8 -22 40 -22 70 0 36 -9 54 -27 50 -14 -3 -31 13 -37 35 -6 23 -19 41 -28 41 -10 0 -18 14 -18 31 0 18 -14 46 -31 63 -17 17 -26 44 -20 60 6 16 -9 58 -33 92 -60 84 -69 177 -14 143 10 -6 13 -20 7 -31z m611 -1280 c0 -21 14 -38 31 -38 17 0 26 -9 20 -19 -19 -30 -63 -4 -88 51 -32 71 -29 98 7 68 17 -14 30 -42 30 -62z m96 -142 c13 -13 24 -45 24 -70 0 -28 12 -46 30 -46 17 0 30 -9 30 -20 0 -11 -18 -20 -40 -20 -26 0 -40 13 -40 39 0 21 -13 52 -30 68 -32 32 -40 73 -14 73 9 0 27 -11 40 -24z m184 -386 c0 -14 10 -30 23 -34 13 -5 27 -29 31 -56 7 -47 7 -47 -36 -8 -46 41 -79 109 -64 133 13 22 46 -3 46 -35z m173 -305 c19 -63 32 -132 29 -152 -4 -26 3 -32 20 -22 17 11 21 6 12 -19 -8 -19 -5 -29 5 -22 20 12 93 -107 84 -137 -2 -10 11 -29 29 -42 18 -13 34 -52 36 -86 1 -33 9 -57 17 -52 8 5 15 -15 15 -45 l0 -53 -45 57 c-25 31 -43 65 -40 74 3 9 -8 30 -25 47 -16 16 -30 47 -30 68 0 22 -10 39 -21 39 -12 0 -16 8 -10 18 6 9 -2 28 -18 41 -16 13 -40 57 -53 98 -13 40 -32 84 -43 98 -11 13 -14 38 -8 53 6 16 3 32 -6 36 -16 5 -6 116 11 116 4 0 22 -52 41 -115z m297 -642 c0 -29 10 -51 23 -49 14 3 19 -11 13 -35 -6 -21 -3 -39 7 -39 9 0 29 -29 43 -65 15 -36 40 -95 55 -131 16 -36 29 -78 29 -93 0 -16 14 -42 30 -58 18 -18 22 -35 11 -43 -27 -16 -143 172 -133 215 5 19 2 35 -5 35 -15 0 -83 148 -83 180 0 11 -13 20 -30 20 -36 0 -37 16 -5 85 29 61 45 53 45 -22z"/> <path d="M1020 13321 c0 -10 9 -24 20 -31 12 -7 14 -23 6 -36 -9 -16 -4 -16 17 1 27 22 30 19 22 -22 -6 -34 8 -63 48 -100 31 -29 48 -53 37 -53 -11 0 -6 -10 10 -22 23 -16 24 -24 5 -31 -14 -6 -25 -24 -25 -40 0 -16 9 -24 20 -17 18 11 24 -3 18 -43 -1 -7 7 -18 18 -25 10 -6 43 -79 72 -162 30 -82 70 -172 90 -200 20 -27 48 -84 63 -125 15 -41 35 -75 44 -75 10 0 15 -21 12 -47 -4 -26 3 -60 15 -75 11 -15 32 -68 47 -118 37 -131 85 -240 104 -240 9 0 17 -14 17 -30 0 -17 23 -66 50 -110 28 -44 50 -106 50 -140 0 -33 17 -77 37 -97 21 -21 43 -61 51 -91 7 -29 31 -68 52 -87 29 -25 33 -37 15 -49 -19 -12 -19 -20 3 -34 15 -10 22 -27 15 -38 -7 -11 -1 -24 13 -30 13 -5 27 -35 30 -67 2 -31 13 -60 24 -64 11 -3 15 -15 9 -25 -6 -10 -2 -18 10 -18 11 0 21 -18 21 -39 0 -26 10 -36 29 -29 21 8 28 -5 27 -51 -1 -34 7 -82 19 -107 105 -219 125 -266 126 -293 0 -17 13 -48 28 -68 16 -20 23 -52 16 -70 -6 -18 -4 -26 6 -17 9 8 42 -50 71 -130 30 -80 63 -144 74 -142 11 3 15 -13 10 -35 -6 -22 -1 -39 13 -39 13 0 17 10 9 23 -9 15 -5 18 11 8 13 -9 20 -32 15 -53 -6 -21 -2 -43 8 -49 10 -6 18 -29 18 -51 0 -22 9 -35 19 -28 11 6 26 -13 34 -44 21 -84 187 -328 187 -275 0 23 -80 266 -102 313 -10 19 -86 190 -169 380 -84 190 -159 355 -168 366 -9 11 -23 43 -31 70 -8 28 -31 86 -50 130 -19 44 -55 139 -80 210 -24 72 -69 175 -100 230 -31 55 -62 123 -70 150 -8 28 -49 124 -92 215 -43 91 -78 170 -78 175 0 5 -22 56 -49 114 -78 171 -165 379 -198 476 -17 50 -71 171 -121 270 -50 99 -91 188 -92 197 0 10 -22 69 -48 130 -26 62 -78 183 -114 268 -63 149 -68 155 -132 155 -36 0 -66 -8 -66 -19z"/> <path d="M4 13230 c-2 -65 37 -155 208 -480 116 -220 522 -1025 903 -1790 687 -1379 781 -1560 809 -1560 27 0 -1517 3137 -1605 3261 -20 29 -39 65 -43 80 -3 16 -11 34 -16 39 -6 6 -37 64 -70 130 -33 66 -84 162 -113 213 -30 51 -58 114 -63 140 -5 28 -9 15 -10 -33z"/> <path d="M2183 9413 c-13 -15 -17 -33 -9 -40 7 -7 2 -13 -11 -13 -12 0 -23 10 -23 22 0 15 -24 18 -75 8 -41 -9 -88 -15 -105 -16 -16 0 -39 -12 -50 -25 -11 -14 -53 -35 -93 -48 -41 -13 -85 -36 -98 -52 -13 -16 -37 -29 -54 -29 -34 0 -420 -392 -524 -531 -267 -360 -343 -1056 -159 -1465 51 -114 50 -119 -36 -116 -99 3 -114 -52 -28 -97 153 -79 172 -148 72 -257 -39 -42 -71 -87 -72 -100 -9 -93 57 -223 122 -240 44 -11 51 -56 18 -117 -27 -52 -12 -66 40 -38 57 30 57 -16 0 -81 l-42 -48 57 -8 57 -8 -50 -13 c-108 -30 -260 133 -260 277 0 21 -25 30 -73 24 -14 -2 -19 13 -13 38 10 39 12 39 38 5 24 -32 27 -30 27 21 2 188 -61 258 -183 205 -55 -24 -127 -5 -121 32 3 18 -12 37 -34 43 -22 5 -50 35 -62 65 -11 31 -38 71 -60 90 -21 18 -39 48 -39 66 0 19 -16 33 -38 33 -20 0 -48 13 -61 28 -19 24 -16 27 18 18 23 -6 41 -1 41 12 0 12 -13 22 -30 22 -45 0 -110 64 -110 109 -1 34 -4 36 -20 11 -16 -26 -22 -25 -46 8 -20 28 -36 33 -61 19 -44 -25 35 -134 412 -576 47 -54 147 -176 223 -270 76 -94 163 -198 193 -231 53 -57 55 -66 41 -195 -8 -74 -8 -135 0 -135 31 0 54 54 50 116 -5 74 21 106 42 50 7 -20 31 -49 52 -64 35 -25 38 -45 29 -190 -6 -89 -7 -147 -2 -129 5 18 29 39 53 46 43 13 43 14 4 30 -37 16 -38 18 -4 31 49 20 61 3 62 -90 2 -99 40 -105 122 -20 53 56 56 66 35 125 -39 109 -199 700 -215 795 -13 74 -19 83 -33 50 -11 -26 -14 -6 -8 60 26 284 40 572 40 860 1 176 9 337 19 358 14 28 12 35 -5 24 -33 -20 -29 19 5 54 30 29 40 64 32 114 -2 17 -11 8 -20 -20 -16 -49 -16 -49 -18 -4 -1 25 11 50 27 56 16 6 24 24 18 40 -6 15 0 28 13 28 14 0 21 16 15 36 -6 24 3 37 27 39 54 4 135 63 150 110 11 37 15 38 31 8 24 -41 65 -44 50 -3 -7 17 -5 31 3 32 8 0 32 5 54 10 22 5 56 10 74 13 19 2 39 15 45 29 5 14 30 26 55 26 34 1 39 5 19 18 -39 25 7 49 66 34 28 -7 56 0 70 17 13 16 38 23 56 16 22 -8 27 -4 16 14 -12 19 -5 22 27 12 59 -19 242 29 242 63 0 21 9 23 41 5 32 -16 49 -15 74 5 28 23 30 20 19 -25 -11 -42 -6 -50 32 -51 46 0 94 35 94 69 0 11 -11 24 -25 29 -14 5 -18 16 -10 24 8 9 26 5 41 -7 15 -12 34 -16 42 -8 8 7 20 4 28 -8 26 -41 98 -50 131 -17 36 36 129 18 284 -53 45 -20 93 -37 107 -37 42 0 142 -67 142 -94 0 -42 57 -30 64 13 4 31 13 35 36 20 26 -17 26 -22 -5 -40 -46 -27 -47 -88 -2 -71 18 7 49 -2 70 -21 33 -29 37 -30 37 -2 0 18 -14 35 -31 39 -26 5 -27 11 -4 42 21 29 37 32 76 17 69 -26 163 -118 138 -134 -12 -7 -43 11 -69 39 -61 66 -74 66 -57 -3 16 -68 41 -85 112 -77 36 4 54 -2 49 -16 -4 -12 -30 -22 -58 -21 l-51 1 52 -66 c29 -36 56 -57 60 -46 3 11 20 20 37 20 22 0 25 -7 11 -25 -37 -48 -42 -114 -10 -132 25 -14 30 -52 27 -185 -4 -152 20 -388 52 -518 11 -48 13 -47 31 20 76 284 43 1075 -47 1131 -10 6 -18 37 -18 69 0 32 -23 92 -50 134 -28 42 -62 93 -75 114 -51 78 -261 303 -307 328 -27 14 -48 35 -48 47 0 30 -62 76 -103 76 -17 1 -41 12 -53 26 -11 14 -66 43 -122 64 -56 22 -102 47 -102 55 0 9 -11 16 -25 16 -14 0 -52 14 -85 32 -82 43 -515 60 -547 21z m53 -153 c8 0 27 9 43 19 19 12 40 11 57 -4 15 -13 47 -26 71 -30 24 -3 46 -15 50 -26 10 -30 63 -22 76 13 8 19 27 27 50 21 20 -5 41 -2 46 6 14 22 128 22 142 0 6 -11 29 -19 51 -19 22 0 35 -9 28 -20 -20 -33 -105 -23 -119 14 -9 24 -18 28 -27 12 -19 -31 -122 -69 -146 -55 -10 6 -18 2 -18 -9 0 -12 25 -27 55 -35 30 -7 61 -22 69 -34 7 -11 38 -24 68 -28 30 -4 72 -16 92 -27 33 -18 36 -14 23 36 -13 52 -11 54 23 26 28 -23 39 -24 45 -5 12 34 38 31 53 -6 6 -18 3 -26 -8 -19 -11 7 -20 3 -20 -7 0 -11 17 -26 37 -32 63 -20 109 -151 53 -151 -35 0 -40 -31 -8 -51 12 -7 17 -30 12 -51 -6 -21 -2 -38 8 -38 10 0 18 -13 18 -28 0 -35 49 -55 93 -38 22 8 30 4 23 -16 -28 -83 -226 -4 -209 84 9 43 4 58 -17 58 -17 0 -24 -12 -17 -30 17 -45 -20 -36 -49 12 -23 36 -21 42 15 52 46 12 54 37 16 54 -14 6 -6 7 18 1 24 -6 48 -3 54 7 6 9 0 19 -13 20 -142 19 -210 7 -129 -22 14 -5 18 -16 10 -24 -8 -9 -28 -4 -45 10 -22 18 -37 19 -56 3 -26 -21 -134 69 -134 112 0 30 -72 87 -88 70 -9 -8 -14 -6 -11 5 8 42 -2 54 -29 32 -15 -13 -35 -22 -45 -20 -51 9 -71 -5 -61 -42 6 -22 2 -40 -8 -40 -10 0 -18 -12 -18 -27 0 -18 -16 -24 -50 -18 -27 5 -50 18 -50 29 0 10 18 13 40 6 50 -16 52 15 5 72 -37 45 -49 57 -116 113 -65 54 -75 101 -23 109 24 3 47 -5 50 -19 4 -14 13 -25 20 -25z m-147 -37 c-47 -43 -124 -44 -135 -1 -10 36 -4 41 37 33 35 -7 49 -1 49 22 0 28 4 27 34 -3 21 -21 27 -40 15 -51z m-149 -53 c14 -36 34 -50 71 -50 29 0 46 -9 39 -20 -22 -36 29 -21 70 20 48 48 63 51 47 10 -8 -22 6 -34 51 -43 70 -14 84 -47 20 -47 -33 0 -38 -6 -21 -26 15 -19 11 -32 -16 -49 -30 -18 -40 -17 -48 5 -6 16 -2 34 8 41 29 18 2 49 -42 49 -26 0 -34 -10 -26 -31 10 -26 0 -31 -55 -25 -52 4 -73 -4 -89 -34 -11 -22 -33 -40 -50 -40 -16 0 -34 -6 -40 -14 -5 -8 -23 -6 -40 5 -19 12 -21 18 -4 19 14 0 25 13 25 30 0 23 11 25 51 10 29 -12 46 -12 40 -2 -6 11 3 33 21 51 33 33 24 103 -11 82 -10 -7 -28 4 -39 24 -19 30 -24 31 -41 5 -11 -16 -21 -22 -21 -12 0 16 59 87 75 91 4 0 15 -21 25 -49z m845 -4 c30 -2 55 5 55 15 0 11 23 19 50 19 28 0 50 -9 50 -20 0 -11 -23 -20 -51 -20 -27 0 -55 -13 -62 -30 -6 -16 -21 -23 -34 -16 -13 8 -43 12 -68 9 -49 -6 -51 -3 -32 47 7 18 18 26 25 17 7 -9 37 -19 67 -21z m-885 -88 c0 -10 -22 -18 -49 -18 -27 0 -54 -9 -61 -20 -7 -11 -30 -20 -51 -20 -22 0 -39 9 -39 20 0 11 14 20 32 20 18 0 28 11 23 25 -7 19 11 24 67 18 43 -4 78 -15 78 -25z m619 -37 c17 -10 24 -25 17 -32 -18 -17 -96 9 -96 32 0 24 41 24 79 0z m581 -1 c0 -11 21 -20 48 -20 26 0 59 -15 75 -33 24 -30 22 -33 -17 -23 -25 7 -47 2 -52 -11 -4 -14 -29 -3 -60 27 -61 57 -67 80 -24 80 17 0 30 -9 30 -20z m-620 -56 c0 -9 -11 -27 -24 -40 -19 -19 -13 -24 24 -24 46 0 46 -1 9 -29 -22 -17 -28 -30 -15 -30 41 -1 5 -61 -36 -61 -46 0 -48 -13 -6 -55 35 -35 -9 -81 -52 -55 -11 7 -20 3 -20 -9 0 -14 -13 -13 -39 3 -38 24 -38 24 1 51 38 27 35 65 -4 65 -11 0 -15 -9 -8 -20 7 -11 -2 -20 -19 -20 -17 0 -31 -13 -31 -30 0 -16 -25 -35 -55 -42 -30 -7 -66 -27 -80 -44 -23 -29 -25 -29 -25 0 0 39 -81 25 -106 -17 -12 -20 -26 -22 -54 -7 -20 11 -63 19 -94 18 -31 -2 -41 -7 -22 -12 19 -5 29 -21 23 -36 -11 -29 -74 -7 -114 40 -10 12 -13 8 -8 -10 9 -34 -54 -104 -75 -83 -7 7 -26 -5 -42 -26 -28 -38 -28 -38 -29 0 -1 33 -4 32 -20 -8 -15 -37 -31 -45 -71 -38 -35 7 -63 -3 -90 -31 -33 -36 -38 -37 -38 -8 0 19 -13 34 -29 34 -18 0 -25 -12 -18 -30 6 -16 1 -30 -12 -30 -13 0 -18 -9 -11 -20 16 -25 -30 -88 -70 -96 -17 -3 -8 13 20 36 l50 41 -54 -12 c-48 -12 -53 -8 -46 32 11 56 30 77 30 32 0 -18 8 -33 18 -33 10 0 15 16 10 35 -5 19 11 58 34 85 32 38 39 41 29 12 -10 -32 -7 -34 19 -12 18 15 27 38 22 52 -6 16 1 22 19 15 16 -6 29 -1 29 12 0 13 11 17 25 8 16 -9 15 -2 -3 20 -20 25 -22 41 -7 56 12 12 20 32 17 44 -3 13 -2 16 3 8 13 -24 61 -17 72 10 7 18 20 13 44 -15 34 -40 34 -40 23 5 -5 25 -3 41 6 35 29 -18 80 13 78 47 -1 21 -5 24 -11 8 -18 -45 -91 -31 -77 15 18 58 -20 49 -68 -15 -39 -53 -41 -53 -41 -10 -1 59 94 125 120 83 14 -22 26 -23 56 -4 28 17 44 17 60 1 17 -17 29 -17 46 0 18 18 37 15 80 -10 54 -32 58 -31 86 6 23 30 30 32 31 9 1 -24 6 -23 28 5 31 42 61 46 46 8 -9 -22 -2 -23 37 -5 41 19 43 24 13 36 -28 11 -29 13 -3 15 17 0 49 -12 70 -27 33 -24 41 -23 65 5 25 30 26 30 16 -2 -8 -25 0 -35 29 -35 21 0 39 -7 39 -16 0 -9 30 -12 67 -8 65 7 72 17 75 109 0 33 58 52 58 19z m772 -96 c-10 -26 -3 -30 35 -20 30 7 57 1 72 -17 19 -23 15 -26 -21 -16 -33 8 -40 5 -28 -15 10 -16 3 -36 -21 -53 -24 -18 -28 -27 -9 -27 14 0 21 -6 14 -13 -18 -18 111 -84 142 -72 19 7 23 -4 13 -42 -10 -41 -6 -53 20 -53 18 0 28 8 22 18 -6 10 16 21 48 26 78 12 100 -38 25 -57 -29 -8 -66 -26 -80 -40 -32 -32 -133 -37 -113 -6 7 11 32 15 56 7 24 -7 36 -6 28 3 -8 9 -35 18 -60 21 -25 2 -52 5 -60 6 -27 3 -15 42 13 42 15 0 33 13 39 29 9 23 -1 27 -45 18 -43 -8 -64 -1 -86 31 -16 23 -58 47 -93 54 -61 13 -97 40 -78 60 5 5 35 -1 67 -13 40 -15 59 -15 64 0 4 11 25 21 46 21 21 0 38 10 38 22 0 14 -14 16 -35 7 -78 -33 -212 8 -193 59 7 19 35 26 89 20 44 -4 79 2 79 12 0 11 5 20 12 20 7 0 7 -15 0 -32z m-671 -34 c48 -37 61 -89 26 -102 -42 -16 -60 -2 -84 68 -23 66 0 80 58 34z m908 -125 c44 -45 39 -52 -24 -37 -85 20 -128 68 -61 68 29 0 67 -14 85 -31z m-2789 -2143 c29 -34 50 -45 55 -30 12 34 45 30 45 -6 0 -16 -9 -30 -20 -30 -11 0 -21 -16 -22 -35 -2 -31 -4 -31 -11 -2 -5 18 -32 39 -60 46 -29 7 -46 19 -39 25 7 7 -3 29 -21 49 -28 31 -28 37 -4 37 17 0 51 -24 77 -54z m488 -749 c-7 -11 6 -37 29 -59 24 -21 37 -52 30 -69 -10 -26 -15 -25 -38 5 -14 20 -36 37 -47 39 -12 1 -27 3 -32 5 -6 1 3 23 20 49 16 25 23 54 15 63 -8 9 -4 10 10 2 14 -8 20 -24 13 -35z"/> <path d="M2280 9194 c0 -21 78 -94 86 -80 16 27 -14 76 -51 82 -19 3 -35 2 -35 -2z"/> <path d="M2684 8997 c51 -40 67 -42 126 -18 49 20 19 34 -96 46 l-77 7 47 -35z"/> <path d="M2040 8813 c0 -23 179 -81 197 -63 18 18 -24 50 -67 50 -26 0 -53 9 -60 20 -18 29 -70 24 -70 -7z"/> <path d="M1960 8780 c0 -11 11 -20 24 -20 13 0 4 -18 -20 -41 -51 -47 -58 -83 -14 -66 17 6 30 20 30 30 0 11 8 14 19 8 28 -18 38 14 19 64 -17 45 -58 63 -58 25z"/> <path d="M5800 8439 c-82 -20 -175 -38 -205 -38 -30 -1 -55 -9 -55 -18 0 -10 -52 -23 -115 -31 -159 -18 -546 -90 -595 -110 -88 -36 -186 -62 -237 -62 -68 0 -390 -75 -441 -103 -21 -12 -81 -34 -134 -49 -87 -26 -128 -95 -51 -86 61 7 114 -4 103 -22 -7 -11 2 -20 19 -20 18 0 31 17 31 40 0 26 13 40 38 40 21 0 42 11 47 25 7 19 16 19 42 -2 21 -18 33 -20 33 -6 0 14 22 18 60 10 48 -10 60 -5 60 23 0 25 12 32 46 26 25 -5 57 3 71 18 33 35 63 33 63 -4 0 -24 9 -25 49 -7 28 13 45 31 39 40 -6 9 -1 17 10 17 11 0 25 -9 32 -20 8 -13 25 -13 47 -1 20 10 60 16 90 12 30 -3 50 -1 44 5 -25 24 34 65 62 42 20 -17 27 -17 27 1 0 18 27 21 100 11 62 -8 100 -6 100 6 0 23 94 52 147 46 21 -3 33 3 27 12 -6 10 6 19 27 21 22 1 39 -6 39 -17 0 -11 9 -15 20 -8 12 7 15 23 7 35 -8 13 -2 17 16 10 33 -12 203 14 267 42 99 42 168 57 193 41 54 -34 77 -19 77 52 0 81 3 80 -200 29z"/> <path d="M0 8423 c0 -15 20 -52 45 -82 25 -31 56 -73 69 -93 20 -31 21 -28 4 22 -23 70 -118 193 -118 153z"/> <path d="M3112 8297 c10 -16 4 -20 -16 -12 -16 6 -42 3 -58 -7 -23 -14 -21 -17 7 -18 19 0 35 -9 35 -21 0 -11 12 -18 26 -15 14 3 25 0 25 -7 -1 -7 16 -32 37 -55 43 -47 32 -51 -68 -22 -76 22 -146 9 -135 -25 4 -12 45 -25 91 -29 101 -10 224 -58 224 -88 0 -15 -47 -18 -145 -9 -124 10 -165 5 -280 -37 -131 -47 -252 -76 -355 -84 -79 -6 -76 -13 10 -26 82 -13 295 17 396 56 66 25 392 29 430 5 39 -25 6 -86 -44 -80 -23 3 -53 -1 -67 -10 -14 -9 -25 -6 -25 6 0 31 -173 26 -353 -11 -86 -18 -189 -35 -227 -37 -105 -8 -168 -31 -145 -54 13 -13 48 -12 100 2 45 12 94 16 111 10 16 -7 35 -3 41 7 7 10 35 14 63 9 27 -5 50 0 50 11 0 31 480 7 513 -26 31 -31 36 -58 8 -41 -10 6 -24 -6 -31 -28 -8 -25 -42 -48 -91 -61 -44 -12 -79 -29 -79 -39 0 -16 -94 -59 -160 -73 -16 -3 -32 -15 -36 -27 -4 -12 -16 -16 -26 -10 -10 6 -18 1 -18 -12 0 -13 13 -18 29 -12 17 6 35 3 40 -6 13 -20 89 -5 126 24 17 14 25 11 25 -8 1 -20 5 -21 16 -3 8 13 49 27 90 32 40 4 80 13 87 21 24 23 47 14 47 -18 0 -23 9 -26 36 -11 21 11 48 12 64 2 16 -10 35 -13 44 -7 9 5 16 1 16 -10 0 -11 -9 -23 -19 -26 -11 -4 -21 -41 -24 -82 -5 -74 -23 -94 -47 -55 -53 86 -466 -60 -470 -165 0 -8 -10 -15 -21 -15 -12 0 -16 9 -9 20 7 12 6 20 -4 18 -45 -8 -66 6 -66 42 0 22 -13 40 -28 40 -16 0 -32 11 -37 25 -5 16 -30 3 -68 -35 -78 -78 -96 -278 -29 -338 21 -19 36 -53 32 -74 -4 -21 1 -38 11 -38 11 0 19 -22 19 -50 0 -27 -10 -50 -21 -50 -12 0 -16 -9 -9 -20 15 -25 90 -26 90 -2 0 10 -11 23 -25 29 -16 6 -14 10 6 11 21 1 32 21 32 61 0 32 -7 55 -14 50 -8 -5 -19 9 -25 31 -6 23 0 40 12 40 13 0 3 14 -21 31 -24 16 -39 43 -33 58 6 16 -6 33 -28 40 -49 15 -36 94 14 90 64 -7 79 2 88 46 8 44 9 44 11 -2 2 -38 8 -43 31 -25 32 27 61 -51 40 -106 -9 -24 2 -33 45 -35 49 -2 50 -4 11 -11 -25 -5 -59 2 -75 15 -23 19 -29 18 -29 -4 0 -24 105 -68 202 -84 15 -3 62 -17 103 -31 89 -30 261 -18 309 21 29 23 32 23 22 -4 -8 -20 0 -30 23 -30 24 0 32 11 26 35 -5 20 -27 36 -49 36 -21 0 -52 14 -69 30 -27 27 -26 30 1 30 17 0 37 23 44 50 7 28 20 50 29 50 8 0 30 5 47 12 21 8 32 1 32 -21 0 -18 -8 -28 -18 -22 -10 6 -14 -5 -9 -24 10 -39 100 -53 113 -18 30 84 -48 244 -79 163 -14 -38 -47 -38 -120 0 -65 34 -179 38 -297 11 -129 -30 -129 12 0 50 125 36 233 29 332 -22 56 -29 59 -28 77 18 49 130 37 318 -19 283 -12 -7 -20 13 -20 49 0 48 -9 61 -41 61 -23 0 -36 9 -29 19 6 11 -11 25 -38 32 -38 10 -50 25 -49 66 1 29 -4 78 -11 108 -14 59 72 86 95 30 6 -15 10 -11 11 10 1 19 -7 35 -19 35 -36 0 -139 86 -139 116 0 22 16 26 60 17 60 -12 60 -12 28 36 -22 34 -57 53 -116 62 -155 23 -173 88 -26 89 78 0 30 48 -78 78 -99 28 -114 27 -96 -1z m338 -1200 c81 -76 -267 -224 -370 -157 -21 14 2 19 81 20 106 0 212 80 166 126 -48 48 72 59 123 11z m-215 -28 c0 -29 -10 -47 -22 -43 -37 12 -31 94 6 94 9 0 16 -23 16 -51z m-105 -45 c13 -44 9 -46 -62 -40 -93 8 -105 36 -33 80 60 36 73 31 95 -40z"/> <path d="M2427 8273 c-17 -20 -5 -31 55 -47 63 -16 78 -15 78 7 0 15 -18 27 -40 27 -22 0 -40 9 -40 20 0 27 -25 24 -53 -7z"/> <path d="M2660 8269 c0 -20 56 -69 79 -69 31 0 26 22 -14 52 -37 28 -65 35 -65 17z"/> <path d="M0 8074 c0 -178 18 -260 64 -295 8 -6 17 -39 20 -73 2 -35 11 -59 19 -54 22 14 97 -75 97 -115 0 -45 40 -70 60 -37 9 14 26 19 39 11 17 -11 17 -22 -1 -43 -19 -23 -14 -36 21 -67 24 -21 42 -45 41 -54 -2 -8 13 -21 33 -28 21 -7 36 -33 37 -61 0 -28 11 -46 25 -43 14 3 25 -5 25 -17 0 -12 12 -18 27 -12 22 9 100 -88 102 -126 0 -5 25 -35 56 -65 31 -30 45 -55 31 -55 -18 -1 -17 -6 4 -20 27 -17 27 -19 0 -20 -24 0 -25 -4 -3 -18 17 -11 22 -33 14 -60 -11 -34 -5 -42 33 -42 44 0 46 6 39 121 -5 84 3 135 24 167 30 46 23 58 -231 395 -144 191 -301 406 -349 477 -48 72 -119 175 -157 230 l-70 99 0 -195z"/> <path d="M1980 8158 c0 -8 -23 -11 -51 -6 -28 5 -82 -6 -121 -24 -39 -19 -90 -36 -114 -38 -24 -3 -46 -7 -49 -10 -3 -3 -21 -6 -40 -8 -46 -3 -85 -29 -85 -55 0 -14 20 -16 55 -6 30 8 71 14 90 13 19 -1 39 6 45 16 9 15 77 29 234 48 19 2 41 11 49 18 19 20 122 17 130 -3 14 -36 172 -45 185 -10 10 25 3 29 -29 21 -23 -6 -78 2 -123 17 -44 16 -88 24 -98 18 -10 -6 -18 -3 -18 6 0 10 -13 18 -30 18 -16 0 -30 -7 -30 -15z"/> <path d="M2760 8090 c-11 -13 -14 -30 -6 -37 7 -7 -16 -13 -51 -13 -37 0 -63 10 -63 25 -1 17 -6 16 -19 -4 -10 -16 -13 -38 -6 -48 7 -12 -3 -14 -23 -6 -19 7 -46 2 -60 -12 -14 -14 -60 -23 -103 -21 -480 23 -661 16 -769 -29 -38 -16 -58 -20 -122 -23 -31 -1 -51 -14 -51 -32 0 -29 56 -29 203 0 116 23 508 32 575 14 56 -15 75 -15 75 3 0 13 9 10 20 -7 11 -17 20 -20 20 -7 0 13 16 21 35 18 19 -3 46 3 60 14 14 12 31 16 37 10 5 -6 52 6 104 25 52 20 137 43 190 50 83 13 95 21 90 57 -7 49 -101 65 -136 23z"/> <path d="M1804 7823 c-93 -26 -40 -50 101 -48 154 2 350 -27 388 -58 17 -14 21 -8 13 22 -6 22 -19 36 -28 30 -10 -6 -18 0 -18 15 -1 19 -6 18 -20 -4 -11 -16 -20 -20 -20 -7 0 46 -298 82 -416 50z"/> <path d="M1670 7800 c-7 -11 -28 -20 -47 -20 -20 0 -36 -17 -37 -39 -2 -26 6 -35 25 -28 16 6 29 22 29 34 0 13 10 10 22 -7 19 -26 20 -26 11 3 -5 17 0 42 13 55 12 12 16 22 9 22 -7 0 -18 -9 -25 -20z"/> <path d="M2070 7660 c7 -11 1 -20 -13 -20 -58 0 19 -38 96 -47 102 -13 119 1 64 50 -45 38 -169 53 -147 17z"/> <path d="M2376 7621 c-5 -32 -1 -54 8 -48 41 25 158 23 137 -2 -30 -36 18 -73 75 -58 53 14 54 19 9 65 -47 48 -100 65 -112 36 -5 -15 -21 -7 -42 21 -45 60 -65 57 -75 -14z"/> <path d="M1353 7484 c-59 -132 -76 -245 -38 -258 14 -5 34 14 44 42 11 29 34 52 51 52 17 0 36 14 43 30 6 17 32 30 58 30 26 0 52 9 59 21 7 11 44 18 81 15 37 -2 73 2 80 8 7 7 49 0 93 -16 94 -33 123 -35 107 -10 -6 10 11 8 39 -5 27 -13 50 -36 50 -52 0 -21 9 -18 31 10 18 22 27 29 20 16 -7 -15 3 -20 28 -13 63 16 25 66 -51 66 -37 0 -68 10 -68 21 0 37 -48 69 -105 70 -30 0 -55 -8 -55 -18 0 -11 -16 -5 -36 13 -21 20 -53 28 -80 21 -24 -6 -57 -1 -73 12 -16 14 -39 19 -50 12 -12 -8 -21 -3 -21 9 0 12 -10 16 -22 9 -12 -8 -31 -2 -42 13 -15 22 -21 23 -29 2 -8 -18 -18 -20 -36 -5 -19 16 -38 -6 -78 -95z"/> <path d="M2238 7570 c-11 -53 -2 -120 16 -120 13 0 30 -8 39 -18 10 -11 7 -12 -8 -4 -15 9 -25 2 -25 -17 0 -37 13 -39 48 -6 22 20 20 31 -12 59 -27 23 -35 47 -26 75 7 24 4 41 -9 41 -11 0 -22 -4 -23 -10z"/> <path d="M80 7421 c11 -22 36 -48 55 -60 24 -14 27 -20 7 -20 -15 -1 -4 -20 27 -44 45 -35 58 -38 72 -15 11 18 6 34 -17 46 -19 10 -57 44 -86 75 -60 66 -89 75 -58 18z"/> <path d="M2810 7425 c8 -19 16 -44 18 -55 15 -68 38 -110 61 -110 18 0 23 15 16 43 -8 30 -4 39 12 29 13 -8 23 -5 23 6 0 32 -43 49 -59 23 -10 -15 -20 -1 -28 37 -6 34 -22 62 -35 62 -13 0 -17 -14 -8 -35z"/> <path d="M2480 7339 c0 -13 -13 -18 -30 -12 -16 7 -30 4 -30 -5 0 -9 14 -28 30 -42 18 -15 30 -17 30 -4 0 12 13 24 28 28 24 5 24 10 0 32 -19 18 -28 19 -28 3z"/> <path d="M3789 7231 c-19 -41 -28 -92 -21 -125 30 -147 36 -209 36 -376 0 -99 -10 -238 -22 -309 -28 -169 25 -215 129 -112 74 74 65 143 -21 171 -78 26 -85 42 -38 82 28 23 39 19 80 -28 l47 -55 11 45 c57 229 6 770 -70 750 -19 -5 -49 -1 -66 9 -25 14 -39 2 -65 -52z m120 -194 c40 -81 43 -144 3 -92 -14 19 -36 35 -48 35 -12 0 -21 27 -18 60 5 77 23 76 63 -3z"/> <path d="M229 7218 c-10 -16 -6 -21 13 -14 17 7 48 -15 78 -56 54 -73 80 -85 80 -38 0 17 -7 30 -17 30 -9 0 -15 20 -15 45 2 51 -111 78 -139 33z"/> <path d="M2138 7215 c-8 -76 62 -160 143 -172 27 -4 66 -16 86 -27 27 -14 34 -14 24 2 -7 12 -4 22 8 22 11 0 21 19 21 43 0 42 -1 42 -40 7 -22 -20 -40 -26 -40 -14 0 12 8 27 18 33 10 6 13 31 7 55 -11 43 -12 43 -31 -5 -17 -41 -22 -43 -29 -14 -4 19 -20 35 -34 35 -14 0 -37 14 -51 30 -30 36 -79 39 -82 5z"/> <path d="M1640 7201 c-60 -7 -131 -24 -158 -39 -37 -20 -50 -21 -62 -2 -27 44 -78 -4 -58 -55 20 -52 52 -57 112 -15 102 72 407 76 476 6 40 -41 40 -41 0 -21 -77 37 -383 18 -446 -29 -68 -50 -175 -77 -193 -47 -22 36 -41 23 -44 -29 -1 -28 6 -44 17 -38 11 7 6 -14 -11 -46 -29 -57 -14 -133 20 -99 9 8 3 25 -14 36 -23 17 -22 19 8 9 52 -17 80 5 52 40 -17 20 -18 28 -1 28 12 0 22 15 22 32 0 26 6 28 27 10 16 -12 41 -18 56 -12 16 6 54 -16 87 -49 31 -34 48 -61 37 -61 -25 0 -28 -62 -5 -91 23 -29 159 -11 172 23 5 15 18 23 28 17 10 -6 29 -4 43 4 14 9 38 16 53 16 16 1 32 10 35 22 5 12 -25 18 -73 16 -58 -4 -80 3 -80 24 0 21 26 29 99 29 80 0 98 -6 88 -30 -6 -16 -1 -30 11 -30 20 0 30 26 25 63 -1 7 39 19 89 26 90 14 91 14 59 62 -17 26 -31 62 -31 79 0 18 -9 27 -20 20 -11 -7 -20 6 -20 29 0 28 -13 41 -40 41 -22 0 -40 8 -40 19 0 39 -154 60 -320 42z m20 -201 c12 -22 15 -40 8 -40 -8 0 2 -18 22 -40 46 -51 6 -55 -101 -11 -79 33 -89 75 -24 107 63 30 71 29 95 -16z m140 20 c-25 -16 -25 -23 -3 -37 21 -14 20 -20 -7 -30 -46 -18 -45 -19 -45 37 0 38 10 50 43 50 34 -1 37 -4 12 -20z m182 -11 c74 -38 44 -79 -69 -92 -61 -8 -72 -4 -61 22 8 17 14 47 15 66 2 43 37 44 115 4z"/> <path d="M482 7056 c-1 -40 -10 -52 -32 -43 -19 7 -30 -1 -30 -23 0 -19 10 -29 25 -22 14 7 41 18 60 24 37 13 49 48 16 48 -10 0 -22 16 -27 35 -6 22 -10 14 -12 -19z"/> <path d="M2457 7003 c-14 -23 -38 -34 -60 -28 -25 6 -37 -1 -37 -23 0 -17 -13 -32 -28 -32 -19 0 -27 -18 -23 -51 3 -29 -8 -61 -27 -75 -44 -33 -48 -72 -6 -64 19 4 39 8 44 9 6 1 -2 9 -17 19 -17 10 -20 22 -7 29 32 20 45 -43 15 -73 -15 -15 -30 -49 -34 -76 -4 -26 -27 -57 -52 -68 -25 -11 -45 -30 -45 -42 0 -13 -13 -34 -29 -47 -15 -13 -28 -39 -28 -57 0 -19 -5 -56 -12 -84 l-13 -50 31 53 c18 32 56 59 91 67 33 7 55 22 49 32 -6 10 12 18 40 18 32 0 51 11 51 30 0 17 -17 30 -39 30 -57 0 -68 33 -23 78 21 21 43 35 47 30 15 -15 80 147 71 175 -5 15 12 74 37 132 46 105 48 139 4 68z"/> <path d="M840 6980 c-12 -22 -18 -79 -12 -125 5 -47 10 -105 11 -130 1 -50 41 -63 41 -13 0 103 100 209 128 135 7 -18 18 -28 24 -21 20 20 -55 127 -114 162 -54 32 -57 31 -78 -8z"/> <path d="M523 6942 l-47 -12 42 -38 c23 -21 49 -32 57 -24 7 8 2 22 -13 31 -22 13 -20 19 10 24 21 5 29 13 18 19 -11 7 -41 6 -67 0z"/> <path d="M2060 6784 c-121 -82 -164 -147 -117 -176 16 -10 20 -3 10 21 -10 26 -6 32 17 24 16 -7 30 -4 30 6 0 10 18 24 40 31 22 7 40 30 40 51 0 22 14 39 30 39 17 0 30 9 30 20 0 28 -22 23 -80 -16z"/> <path d="M3154 6768 c-23 -23 135 -114 214 -123 53 -6 73 -2 63 13 -7 12 -4 22 7 22 11 0 16 13 9 30 -7 19 -27 26 -54 19 -24 -6 -82 3 -131 20 -101 36 -92 34 -108 19z"/> <path d="M2 6622 c2 -89 2 -90 20 -29 14 50 26 61 59 53 62 -17 154 -226 99 -226 -11 0 -20 -12 -20 -27 0 -14 -11 -27 -25 -27 -14 -1 -37 -4 -52 -8 -17 -5 -38 20 -54 62 l-26 70 -1 -70 c-1 -57 16 -87 87 -158 77 -77 86 -96 77 -154 -10 -58 -4 -70 38 -86 27 -10 97 -75 156 -145 187 -223 233 -255 231 -162 -1 35 -12 55 -31 55 -40 0 -75 71 -83 164 -3 42 -14 82 -23 88 -10 7 -20 41 -23 76 -3 35 -11 69 -18 76 -7 7 -13 27 -13 45 0 17 -32 78 -70 135 -39 58 -70 125 -71 150 0 66 -122 189 -197 200 -62 9 -62 9 -60 -82z m260 -247 c3 -43 14 -103 29 -152 12 -39 8 -46 -22 -40 -60 12 -86 217 -28 217 11 0 20 -11 21 -25z"/> <path d="M2460 6700 c-17 -62 -11 -140 11 -140 15 0 37 -16 49 -35 18 -29 20 -27 9 15 -11 39 -8 45 11 26 29 -27 12 -89 -21 -81 -13 3 -31 -16 -41 -43 -16 -40 -14 -44 10 -24 19 16 33 17 41 3 8 -12 22 -21 33 -21 11 0 15 9 8 20 -7 11 -3 20 9 20 11 0 21 -14 21 -31 0 -17 9 -26 21 -18 11 7 34 2 50 -12 50 -41 32 -4 -32 65 -50 53 -60 78 -52 131 11 69 -59 150 -89 102 -9 -15 -17 -13 -24 6 -6 15 -12 23 -14 17z"/> <path d="M3474 6672 c-18 -47 -18 -57 4 -43 22 13 50 -46 44 -94 -3 -21 9 -35 28 -35 23 0 29 -11 21 -37 -7 -21 -3 -59 7 -85 11 -26 20 -38 21 -25 0 12 15 28 31 34 55 21 32 -41 -42 -112 -62 -60 -69 -76 -50 -111 16 -31 16 -45 -1 -56 -13 -8 -18 -5 -10 7 19 31 -35 67 -117 77 -66 8 -72 4 -66 -35 4 -29 21 -45 50 -47 24 -2 40 4 34 13 -6 10 4 17 21 17 33 0 34 -33 1 -72 -12 -15 -25 -16 -32 -4 -7 11 -17 3 -22 -18 -7 -27 1 -37 27 -37 20 0 37 7 37 15 0 9 8 16 18 16 10 0 13 -18 8 -40 -8 -31 -17 -36 -37 -19 -18 14 -29 15 -38 0 -8 -12 -5 -21 6 -21 10 0 25 -16 32 -35 11 -28 8 -30 -12 -10 -14 14 -33 25 -42 25 -10 0 -4 -13 12 -30 17 -16 40 -30 52 -30 11 0 21 -9 21 -20 0 -11 -14 -20 -31 -20 -17 0 -26 -9 -19 -20 7 -11 4 -20 -6 -20 -10 0 -16 -32 -13 -70 7 -88 -36 -139 -92 -109 -22 11 -39 32 -39 47 0 44 -74 97 -116 83 -23 -7 -52 0 -69 17 -123 123 -315 178 -315 91 0 -34 6 -37 40 -19 32 17 51 14 89 -14 70 -51 75 -77 15 -82 -29 -2 -58 -14 -65 -25 -7 -12 -35 -16 -64 -9 -31 8 -75 1 -112 -18 -78 -41 -90 -40 -75 3 11 33 11 33 -15 1 -20 -26 -32 -29 -49 -12 -13 13 -69 22 -125 21 -89 -2 -104 4 -124 47 -13 30 -33 45 -50 39 -16 -6 -36 -11 -46 -11 -10 0 -13 -13 -6 -30 8 -21 -1 -30 -29 -30 -23 0 -56 -6 -76 -13 -23 -10 -30 -6 -20 10 8 12 4 23 -8 23 -12 0 -17 8 -11 18 6 10 -8 13 -31 7 -28 -7 -34 -15 -17 -26 15 -9 18 -25 7 -42 -25 -39 -31 -101 -9 -88 10 6 32 -8 50 -33 24 -35 31 -38 31 -12 0 65 282 88 387 32 63 -34 190 -43 271 -20 303 87 336 90 382 44 21 -21 43 -31 49 -21 12 19 144 14 164 -5 19 -20 -10 -107 -38 -111 -14 -2 -52 -7 -84 -10 -32 -4 -62 -17 -67 -30 -4 -14 5 -18 27 -10 42 16 12 -49 -44 -95 -30 -24 -32 -24 -18 0 13 22 9 26 -17 16 -19 -8 -29 -6 -23 4 11 18 -32 42 -76 42 -13 0 -35 -26 -48 -57 -35 -78 -221 -133 -355 -104 -107 23 -214 -70 -121 -106 20 -8 26 -1 17 23 -9 28 -6 27 18 -4 17 -21 40 -32 53 -24 38 24 230 30 270 8 26 -14 34 -13 25 1 -18 28 28 53 88 47 31 -4 71 14 104 45 46 43 62 48 108 30 29 -11 58 -15 64 -10 6 6 -1 11 -15 11 -21 0 -21 6 -1 30 31 37 88 1 71 -45 -6 -15 3 -42 20 -59 17 -16 26 -45 21 -63 -5 -18 -24 -105 -43 -193 -19 -88 -48 -176 -66 -196 -26 -30 -26 -39 -5 -53 21 -13 19 -21 -11 -38 -20 -12 -26 -22 -12 -22 14 -1 25 -20 25 -43 0 -30 -9 -39 -31 -30 -24 9 -29 2 -19 -26 8 -27 1 -42 -24 -48 -29 -8 -27 -10 8 -12 42 -2 89 -42 50 -42 -33 0 -45 -88 -15 -105 32 -17 10 -128 -23 -121 -11 2 -16 -17 -11 -43 6 -30 -6 -62 -33 -89 -45 -45 -82 -55 -82 -21 0 12 -9 16 -21 8 -11 -7 -15 -31 -8 -54 11 -32 7 -38 -18 -29 -18 7 -32 6 -30 -2 5 -35 -4 -66 -18 -57 -8 5 -16 -12 -18 -39 -1 -26 5 -48 14 -48 9 0 9 -25 0 -55 -44 -138 -42 -181 5 -171 35 8 38 5 14 -12 -16 -12 -21 -22 -10 -22 11 0 7 -9 -10 -20 -16 -11 -20 -20 -9 -20 55 0 149 176 149 280 0 12 17 60 39 107 21 46 44 109 52 139 21 84 56 66 41 -21 -27 -155 -36 -185 -53 -185 -10 0 -13 -12 -7 -27 9 -24 -5 -55 -93 -199 -21 -35 -19 -35 38 -5 33 17 66 40 73 51 7 11 30 20 51 20 22 0 39 8 39 18 0 11 23 47 52 80 50 60 50 62 9 62 -47 0 -47 6 13 218 36 129 95 197 81 95 -4 -28 -13 -58 -21 -65 -7 -8 -8 -36 -1 -64 9 -33 6 -45 -9 -37 -12 8 -27 5 -34 -7 -22 -35 54 -22 83 15 25 32 26 30 19 -19 -8 -50 -3 -55 80 -67 63 -10 102 -30 138 -73 76 -90 120 3 46 98 -11 13 -14 33 -7 44 6 10 -16 38 -49 62 -78 56 -76 82 5 68 l65 -10 -67 31 c-37 17 -79 31 -93 31 -34 0 -95 95 -102 162 -8 61 19 90 92 104 28 5 16 6 -25 3 -74 -5 -75 -4 -75 69 0 82 28 121 89 124 34 2 35 4 6 12 -19 5 -35 17 -35 27 0 11 -13 19 -28 19 -19 0 -33 35 -42 105 -8 58 -31 185 -51 284 l-37 178 111 180 c214 345 350 850 246 914 -18 11 -29 50 -29 106 0 54 -8 85 -20 78 -11 -6 -10 0 3 14 31 34 11 101 -27 87 -24 -9 -24 -15 -3 -28 20 -13 16 -17 -13 -17 -52 0 -76 18 -102 78 -18 42 -23 44 -34 13z m5 -2617 c0 -8 -21 -13 -47 -11 -46 4 -46 6 -15 48 32 43 55 29 62 -37z"/> <path d="M2968 6615 c7 -57 -1 -62 -117 -79 -36 -6 -36 -8 -3 -41 43 -43 92 -46 92 -5 0 17 10 30 21 30 12 0 16 -9 9 -21 -7 -11 14 -46 48 -77 33 -31 57 -60 52 -65 -4 -5 9 -8 31 -8 21 0 39 10 39 24 0 13 11 29 25 36 14 6 4 8 -22 3 -33 -7 -43 -1 -35 19 6 15 -5 37 -24 48 -30 18 -30 23 -4 42 21 16 23 25 6 32 -13 5 -19 23 -13 38 6 16 1 29 -11 29 -12 0 -22 -9 -22 -19 0 -31 -57 -1 -68 36 -6 18 -8 8 -4 -22z"/> <path d="M1460 6560 c14 -26 35 -39 53 -32 17 7 41 12 54 13 29 0 -21 29 -84 48 -43 14 -45 11 -23 -29z"/> <path d="M887 6453 c7 -20 19 -58 25 -85 7 -26 24 -48 38 -48 49 0 42 50 -17 110 -39 41 -54 48 -46 23z"/> <path d="M484 6360 c61 -105 106 -124 88 -37 -15 79 -46 117 -95 117 -36 0 -36 -4 7 -80z"/> <path d="M1375 6412 c-40 -30 -48 -80 -10 -66 14 5 23 19 20 32 -3 12 20 22 50 22 43 1 48 5 25 20 -38 25 -43 24 -85 -8z"/> <path d="M3210 6380 c-7 -12 -19 -17 -27 -12 -8 5 -16 -13 -19 -39 -2 -27 6 -49 17 -49 11 0 16 -20 12 -45 -4 -25 -1 -63 8 -85 9 -22 17 -30 18 -17 0 13 18 19 41 13 28 -7 40 -1 40 21 0 18 23 38 50 45 83 20 47 68 -52 68 -40 0 -53 49 -18 70 11 7 20 23 20 35 0 17 -7 16 -24 -1 -29 -29 -63 -32 -46 -4 7 11 8 20 2 20 -5 0 -15 -9 -22 -20z"/> <path d="M1414 6333 c-8 -20 -24 -29 -36 -22 -14 9 -19 0 -15 -23 4 -21 25 -40 47 -42 22 -3 28 0 14 6 -19 9 -20 19 -3 39 13 15 19 39 15 52 -6 16 -14 12 -22 -10z"/> <path d="M2456 6299 c-7 -23 -46 -25 -169 -7 -50 7 -88 3 -96 -10 -7 -12 -31 -22 -52 -22 -22 0 -39 -9 -39 -20 0 -11 8 -20 19 -20 10 0 24 -17 30 -38 7 -21 37 -42 67 -48 64 -12 80 -2 48 30 -13 13 -24 31 -24 40 0 22 75 20 89 -2 18 -30 109 -38 144 -12 21 15 25 29 12 37 -12 7 -17 31 -11 53 11 41 -5 57 -18 19z"/> <path d="M2815 6276 c-41 -24 -75 -53 -75 -65 0 -12 -19 -33 -42 -47 -38 -24 -40 -23 -28 15 10 33 6 38 -22 27 -23 -9 -30 -5 -20 11 9 14 2 23 -18 23 -18 0 -27 -8 -21 -19 6 -10 -9 -21 -34 -25 -71 -10 -53 -62 30 -86 70 -19 72 -22 35 -46 -33 -20 -40 -19 -40 6 0 19 -19 30 -50 30 -27 0 -50 -7 -50 -17 0 -23 -87 -17 -105 7 -8 11 -15 6 -15 -14 0 -40 -101 -116 -154 -116 -41 0 -132 -58 -92 -59 13 -1 29 8 36 19 7 11 22 20 34 20 13 0 12 -11 -4 -30 -14 -17 -16 -30 -5 -30 12 0 25 12 31 26 14 36 265 52 379 23 110 -28 262 106 164 144 -43 17 -35 45 8 33 28 -7 41 4 51 42 14 57 92 75 92 22 0 -55 59 -28 97 44 59 113 -37 145 -182 62z m-175 -284 c0 -34 -49 -55 -90 -39 -54 21 -34 67 30 67 38 0 60 -10 60 -28z"/> <path d="M489 6042 c1 -34 10 -62 21 -62 11 -1 69 -50 130 -110 104 -105 163 -138 150 -85 -20 81 -38 115 -60 115 -14 0 -47 22 -73 50 -26 27 -54 49 -63 50 -9 0 -36 23 -61 52 l-45 52 1 -62z"/> <path d="M1600 6094 c0 -9 9 -34 21 -55 13 -24 13 -39 1 -39 -11 0 -25 18 -32 40 -8 26 -28 38 -59 35 -29 -2 -43 -13 -37 -29 6 -14 16 -22 24 -17 8 5 27 0 43 -10 23 -15 21 -19 -11 -19 -39 -1 -39 -2 -1 -31 21 -16 53 -29 70 -29 25 1 25 4 4 18 -21 13 -20 19 7 29 18 7 27 22 20 33 -7 11 -3 20 9 20 11 0 21 -14 21 -31 0 -41 32 -21 45 27 8 31 0 36 -40 28 -29 -6 -56 2 -67 18 -9 16 -18 21 -18 12z"/> <path d="M60 5949 c-11 -29 -20 -89 -19 -135 0 -116 42 -45 53 90 9 106 -5 123 -34 45z"/> <path d="M1532 5883 c-31 -18 -56 -40 -55 -48 2 -8 3 -24 3 -35 0 -11 10 -20 21 -20 12 0 16 9 9 20 -7 11 1 14 19 8 18 -7 36 1 42 18 12 31 41 34 84 7 17 -10 21 -5 13 16 -7 17 -27 32 -45 32 -26 2 -24 6 7 19 40 17 40 17 0 17 -22 0 -66 -15 -98 -34z"/> <path d="M1760 5775 c-1 -32 -5 -37 -18 -18 -13 21 -19 20 -28 -5 -8 -19 2 -39 27 -52 35 -19 39 -15 39 49 0 39 -4 71 -10 71 -5 0 -10 -20 -10 -45z"/> <path d="M1440 5731 c0 -18 12 -25 28 -19 19 7 32 -5 37 -35 7 -40 10 -42 23 -13 10 22 5 46 -15 65 -38 39 -73 40 -73 2z"/> <path d="M1400 5670 c0 -6 19 -51 42 -100 23 -49 38 -100 32 -114 -5 -14 6 -43 24 -64 30 -36 29 -38 -13 -27 -32 8 -45 2 -45 -19 0 -21 13 -27 40 -20 32 8 40 0 40 -37 0 -34 -8 -44 -30 -36 -23 9 -29 0 -23 -36 5 -33 19 -45 44 -40 30 5 32 1 13 -22 -13 -16 -17 -36 -9 -45 8 -9 4 -10 -10 -2 -15 9 -25 3 -25 -14 0 -15 21 -37 47 -49 26 -12 53 -41 59 -65 11 -41 9 -42 -40 -9 -38 25 -55 27 -66 9 -8 -13 -20 -23 -27 -22 -36 5 -40 0 -15 -17 25 -15 23 -26 -6 -71 -26 -39 -30 -60 -14 -76 16 -16 22 -15 22 2 0 38 110 28 147 -13 53 -58 39 -75 -60 -71 -141 6 -201 -68 -189 -230 2 -23 9 -22 39 5 20 18 42 27 50 20 7 -8 13 0 13 18 0 35 40 55 110 55 77 0 110 -22 110 -72 0 -44 -8 -48 -91 -48 -82 0 -99 -9 -176 -90 -107 -114 -118 -113 -110 10 4 55 0 100 -9 100 -29 0 7 188 44 229 20 23 33 52 28 66 -5 14 0 25 12 25 12 0 22 14 22 30 0 17 8 30 17 30 22 0 22 64 0 92 -20 26 -2 88 25 88 10 0 7 18 -7 41 -16 26 -18 45 -5 55 28 20 24 125 -7 181 -15 26 -22 64 -17 84 11 41 -27 84 -70 78 -97 -13 -256 4 -256 27 0 28 -131 88 -172 78 -14 -3 -31 4 -38 15 -19 32 -93 25 -119 -12 -21 -27 -31 -28 -73 -6 -33 18 -142 27 -353 28 l-305 1 0 -80 c0 -49 7 -70 17 -54 12 18 22 11 39 -25 13 -28 35 -51 49 -51 19 1 18 5 -2 18 -16 10 -19 22 -8 29 11 7 43 -9 71 -35 28 -26 56 -44 61 -38 5 5 29 -1 53 -14 24 -13 38 -28 32 -34 -6 -7 -23 -2 -37 10 -17 14 -37 15 -56 3 -25 -16 -25 -18 2 -19 18 0 50 -20 72 -45 23 -25 60 -58 84 -74 24 -17 43 -43 43 -58 0 -38 79 -163 103 -163 11 0 13 11 4 24 -8 14 -13 50 -11 81 3 31 -5 74 -16 96 -34 63 14 48 84 -26 34 -36 55 -54 48 -40 -10 16 -4 21 17 13 17 -7 31 -20 31 -30 0 -10 18 -18 40 -18 22 0 40 9 40 20 0 76 87 -2 92 -82 9 -175 30 -265 72 -301 33 -29 37 -42 18 -65 -17 -20 -17 -33 -3 -41 14 -9 11 -24 -10 -44 -25 -26 -26 -37 -5 -64 13 -18 17 -26 7 -18 -10 8 -34 -12 -54 -45 -46 -75 -70 -76 -86 -2 -12 52 -17 55 -62 35 l-48 -23 45 -11 c32 -8 42 -23 37 -57 -3 -26 2 -41 13 -34 11 6 24 -6 30 -28 6 -22 1 -40 -10 -40 -12 0 -15 -21 -8 -49 7 -27 4 -54 -7 -60 -11 -7 -14 -28 -8 -47 6 -20 4 -26 -6 -13 -9 11 -48 23 -86 26 -67 4 -67 3 -33 -35 25 -27 31 -53 21 -86 -8 -25 -13 -49 -10 -54 2 -4 -7 -15 -21 -24 -21 -12 -19 -23 8 -53 47 -52 43 -117 -10 -154 -42 -29 -42 -31 -5 -30 46 2 131 36 93 38 -20 1 -20 10 -3 44 17 30 28 35 38 18 11 -18 19 -15 29 11 15 40 -17 67 -82 68 -24 0 -48 8 -54 17 -6 10 11 13 39 8 28 -6 49 0 49 13 0 45 84 20 139 -41 98 -106 94 -165 -4 -81 -24 21 -35 23 -35 6 0 -13 -9 -19 -20 -12 -11 7 -20 -5 -20 -27 0 -22 11 -43 25 -48 15 -5 6 -18 -23 -34 -39 -21 -50 -20 -64 2 -14 21 -17 20 -18 -6 0 -29 -8 -30 -61 -11 -71 27 -116 -12 -74 -63 19 -22 15 -35 -17 -61 -30 -24 -37 -44 -26 -73 8 -21 16 -28 17 -14 1 20 9 20 40 1 45 -28 35 -59 -15 -43 -20 6 -26 4 -13 -6 32 -25 51 -87 27 -87 -11 0 -15 -9 -8 -20 7 -11 -1 -14 -19 -8 -17 7 -31 3 -31 -8 0 -11 11 -25 25 -31 14 -5 3 -11 -25 -12 -37 -1 -43 -6 -22 -19 15 -10 23 -31 16 -48 -6 -16 0 -40 12 -52 18 -18 17 -28 -3 -40 -21 -13 -19 -23 12 -44 49 -35 56 -59 23 -80 -31 -19 18 -82 105 -133 46 -27 53 -44 50 -117 -1 -46 -10 -74 -18 -61 -10 16 -14 16 -15 -3 0 -15 -14 -40 -30 -57 -17 -16 -30 -40 -30 -52 0 -13 13 -5 29 16 29 38 30 38 30 -7 1 -30 9 -41 24 -32 16 10 18 5 5 -14 -10 -15 -18 -59 -18 -98 0 -56 -7 -69 -37 -67 -26 2 -31 -3 -17 -17 12 -12 16 -33 10 -48 -6 -16 2 -28 17 -28 21 -1 20 -5 -3 -20 -24 -16 -22 -19 14 -20 33 0 42 -8 32 -33 -8 -22 -5 -29 9 -20 12 8 28 5 35 -7 7 -11 1 -20 -14 -21 -15 0 -10 -9 11 -22 31 -18 33 -25 10 -41 -19 -13 -14 -15 18 -6 26 7 45 4 45 -9 0 -11 20 -22 45 -23 36 -2 34 -6 -15 -18 -57 -15 -24 -30 45 -21 14 1 25 -7 25 -18 0 -12 13 -21 29 -21 17 0 26 -11 21 -25 -12 -30 23 -89 41 -71 7 7 6 25 -3 40 -26 41 -29 93 -6 107 11 7 19 1 17 -14 -7 -50 1 -77 22 -77 12 0 16 9 9 20 -7 11 -3 20 9 20 11 0 21 16 22 35 0 27 7 24 31 -15 l30 -50 -12 50 -12 50 30 -50 31 -50 0 46 c1 26 10 41 21 34 11 -7 20 1 20 18 0 47 36 57 84 23 25 -17 34 -31 21 -31 -13 0 -19 -13 -12 -30 6 -16 18 -25 27 -20 9 6 21 -1 27 -15 6 -14 8 5 5 42 -3 37 -15 73 -26 80 -28 18 -47 126 -18 108 37 -23 90 -19 100 7 7 17 -1 22 -24 14 -19 -7 -27 -5 -19 4 8 9 -8 37 -35 62 -57 53 -64 88 -18 88 28 0 29 5 5 34 -23 29 -23 31 3 17 23 -13 25 -11 8 7 -26 29 28 160 66 161 13 1 33 17 44 36 19 31 21 30 21 -10 1 -27 -11 -45 -29 -45 -42 0 -37 -47 10 -90 22 -20 40 -57 40 -82 0 -33 9 -43 30 -35 16 6 30 30 30 52 0 23 -6 36 -13 29 -15 -16 -87 63 -86 94 0 12 13 6 28 -14 18 -24 32 -29 41 -14 9 15 21 15 37 2 18 -14 24 -9 24 18 0 29 -7 33 -35 18 -26 -14 -36 -12 -36 6 0 14 -6 48 -13 74 -9 34 -6 44 10 34 14 -9 23 -2 23 17 0 17 -13 31 -30 31 -37 0 -30 45 10 64 25 11 24 13 -5 15 -38 1 -48 51 -15 71 48 29 19 70 -50 70 -38 0 -70 10 -70 21 0 12 9 16 19 10 10 -7 28 5 40 27 17 31 14 41 -14 46 -47 10 -127 -5 -116 -22 26 -42 -24 -59 -103 -36 -83 24 -132 54 -91 54 12 0 17 18 11 40 -6 22 -1 40 12 40 12 0 22 -18 22 -40 0 -22 8 -40 18 -40 10 0 14 18 8 40 -6 23 -1 40 13 40 13 0 19 8 13 17 -29 47 -32 142 -4 131 41 -16 77 -123 46 -135 -18 -7 -18 -10 -1 -11 13 -1 19 -19 13 -42 -6 -22 -18 -35 -28 -29 -10 6 -12 -3 -6 -20 27 -68 64 -32 61 59 -2 50 2 90 7 90 39 0 54 150 18 182 -22 18 -36 53 -33 79 4 34 -8 50 -45 61 -47 13 -47 20 0 26 11 1 20 9 20 17 0 8 0 24 0 35 0 11 -18 20 -40 20 -22 0 -40 8 -40 18 0 9 -28 23 -63 30 -35 7 -58 18 -50 25 7 8 -4 25 -25 40 -20 14 -41 43 -47 64 -14 52 37 37 123 -38 68 -60 122 -76 122 -38 0 13 17 16 40 9 28 -9 40 -4 40 19 0 24 -23 31 -100 31 -55 0 -100 9 -100 20 0 11 10 20 21 20 26 0 17 99 -9 106 -10 2 -20 -16 -22 -41 -4 -56 -14 -67 -46 -48 -46 29 30 148 77 122 22 -11 39 -38 39 -59 0 -20 9 -43 20 -50 12 -7 20 19 20 68 0 44 9 85 20 92 11 7 20 30 20 51 0 22 10 39 22 39 13 0 18 -18 12 -40 -6 -25 7 -56 38 -85 54 -51 65 -106 17 -87 -25 9 -30 -1 -25 -52 3 -34 18 -67 32 -71 19 -7 22 5 13 43 -8 31 -5 52 7 52 12 0 26 -20 31 -45 14 -59 -2 170 -19 280 -11 71 -8 85 19 85 24 0 34 -20 36 -75 5 -99 10 -153 17 -165 20 -39 11 -165 -12 -174 -15 -5 -22 -19 -15 -30 7 -11 1 -27 -13 -36 -19 -12 -19 -25 2 -62 15 -27 24 -60 21 -76 -4 -18 5 -23 26 -15 22 8 39 -2 51 -32 14 -33 15 -22 7 40 -8 55 -4 85 9 85 16 0 16 18 0 62 -16 46 -15 67 4 85 19 18 22 13 11 -22 -8 -27 -5 -45 8 -45 21 0 30 41 22 100 -3 21 6 18 29 -10 28 -33 31 -34 22 -5 -6 19 -1 35 11 35 12 0 18 -27 14 -66 -6 -52 -1 -67 27 -69 20 -1 36 6 36 16 0 11 -7 19 -16 19 -18 0 -13 138 5 156 6 6 11 -13 11 -43 0 -29 10 -53 21 -53 12 0 16 8 10 19 -6 10 -3 24 9 31 11 7 20 2 20 -10 0 -12 8 -17 19 -11 10 6 25 1 33 -12 8 -14 6 -18 -7 -10 -11 7 -26 -1 -33 -19 -17 -45 -15 -52 13 -43 14 5 35 -5 47 -21 44 -60 66 -6 28 71 -20 41 -29 80 -19 86 33 20 -2 95 -40 85 -26 -7 -38 5 -46 43 -8 45 -4 52 33 47 25 -4 39 -19 36 -36 -6 -24 -2 -25 18 -5 21 20 18 32 -17 64 -61 57 -75 119 -37 158 29 29 32 25 32 -52 0 -68 6 -82 32 -71 23 8 29 28 20 69 -6 31 -2 57 9 57 10 0 19 14 19 31 0 17 -9 26 -19 20 -57 -35 -125 14 -114 82 8 53 4 67 -22 67 -27 0 -26 5 6 30 37 29 36 30 -21 19 l-60 -11 50 30 50 31 -45 13 c-53 15 -60 41 -10 41 19 0 46 -14 60 -31 22 -27 24 -23 13 28 -17 77 -27 93 -48 80 -9 -5 -13 10 -8 35 5 25 3 34 -3 20 -7 -14 -25 -25 -42 -25 -35 0 -19 123 24 193 24 38 23 42 -8 33 -20 -5 -49 7 -64 26 -27 32 -24 34 31 21 33 -8 49 -7 36 2 -21 14 -29 35 -45 125 -1 6 -10 -3 -20 -19 -13 -21 -21 -7 -31 50 -7 44 -25 117 -40 164 -21 64 -22 85 -4 85 19 1 19 4 0 16 -37 23 -47 120 -16 152 16 15 23 33 16 40 -7 6 -2 12 11 12 34 0 28 61 -10 104 -32 35 -35 35 -72 2 -36 -33 -39 -33 -58 -1 -17 31 -77 50 -77 25z m-1080 -221 c0 -38 -8 -69 -17 -69 -10 0 -18 36 -18 79 0 44 8 75 18 69 9 -6 17 -41 17 -79z m222 31 c80 0 279 -229 277 -319 0 -26 -3 -26 -20 2 -27 48 -154 122 -180 106 -12 -7 -37 1 -55 17 -19 17 -57 37 -85 44 -33 8 -60 35 -74 74 -29 75 -15 103 42 88 24 -6 67 -12 95 -12z m303 -52 c20 -19 -7 -68 -37 -68 -15 0 -28 12 -28 27 0 44 38 68 65 41z m382 -58 c32 -17 71 -30 87 -30 16 0 25 -11 21 -25 -5 -14 -1 -47 9 -74 22 -61 -18 -246 -51 -235 -13 4 -28 56 -33 116 -16 169 -142 253 -267 177 -50 -31 -53 -36 -20 -45 23 -6 14 -10 -25 -12 -65 -2 -127 71 -99 116 19 31 56 5 43 -30 -6 -16 1 -28 16 -28 15 0 33 14 39 30 7 17 26 30 42 30 17 0 31 9 31 20 0 31 143 24 207 -10z m-128 -189 c15 -34 36 -54 51 -48 18 7 24 -10 22 -55 -2 -54 -92 -136 -92 -85 0 7 -12 2 -26 -9 -36 -31 -74 0 -83 67 -4 33 -14 76 -22 96 -12 30 -6 35 33 30 27 -4 49 4 50 18 5 41 7 45 26 45 9 0 28 -26 41 -59z m-159 -251 c24 -22 48 -25 93 -12 66 19 127 -3 127 -46 0 -56 -185 -56 -235 0 -68 76 -56 122 15 58z m239 -167 c-2 -18 -2 -37 0 -43 14 -41 7 -220 -9 -222 -11 0 -9 -6 5 -11 35 -15 31 -87 -5 -87 -16 0 -30 10 -30 22 0 16 -9 15 -30 -2 -24 -20 -31 -18 -40 8 -5 17 -15 47 -20 65 -6 17 0 45 13 61 26 31 -13 75 -47 54 -9 -6 -16 8 -16 31 0 25 13 41 34 41 31 0 31 2 -2 26 -39 28 4 91 45 66 10 -6 30 2 43 18 29 35 63 20 59 -27z m-191 -335 c7 -17 -4 -65 -23 -105 -31 -64 -36 -68 -41 -28 -4 25 -15 45 -25 45 -27 0 -23 57 6 90 33 38 68 37 83 -2z m165 -58 c16 -16 24 -39 17 -50 -7 -11 11 -29 39 -40 82 -31 78 -211 -4 -191 -66 17 -57 5 -83 100 -14 52 -14 87 -2 99 29 29 24 58 -8 46 -40 -16 -54 5 -26 37 30 35 31 35 67 -1z m475 -58 c-7 -17 4 -32 26 -37 26 -6 20 -12 -24 -23 -33 -7 -85 -26 -115 -42 -47 -24 -55 -24 -55 0 0 16 -12 24 -28 18 -15 -6 -34 -1 -42 11 -9 15 4 19 40 13 58 -11 151 22 176 63 21 34 35 32 22 -3z m-612 -102 c0 -38 -9 -70 -19 -70 -11 0 -14 -8 -8 -19 14 -22 -66 -181 -91 -181 -10 0 -18 9 -18 19 0 11 -19 37 -42 58 -49 46 -45 129 7 139 25 5 35 -6 35 -39 l0 -46 35 50 c19 27 35 58 36 69 7 96 65 114 65 20z m666 -75 c2 -47 1 -96 -1 -110 -1 -14 18 -25 43 -26 45 0 45 -1 7 -30 -59 -44 -111 -37 -110 16 1 25 -5 88 -13 140 -12 88 -10 95 29 95 37 0 43 -12 45 -85z m-622 -119 c0 -12 16 -35 35 -50 29 -24 30 -28 3 -19 -18 5 -47 -8 -65 -29 -70 -82 -98 -25 -39 79 33 57 66 66 66 19z m531 -117 c7 -11 29 -15 50 -9 21 7 54 3 74 -8 31 -19 30 -21 -11 -21 -25 -1 -73 -15 -106 -32 -75 -39 -116 -30 -71 15 42 42 42 64 2 48 -18 -6 -26 -3 -19 8 16 26 64 26 81 -1z m-635 -283 c36 -36 29 -56 -21 -56 -25 0 -67 -2 -95 -5 -67 -7 -77 29 -18 60 61 31 104 31 134 1z m154 -156 c21 -34 -42 -22 -87 17 -24 21 -43 44 -43 51 0 17 114 -42 130 -68z m-370 24 c0 -30 -56 -94 -70 -80 -22 21 10 96 41 96 16 0 29 -7 29 -16z m230 -86 c0 -15 -20 -31 -45 -34 -49 -7 -65 45 -20 63 38 15 65 3 65 -29z m236 -12 c-7 -17 0 -22 20 -15 24 9 28 2 20 -31 -9 -32 -16 -36 -28 -17 -9 14 -19 22 -22 16 -33 -51 -56 -104 -56 -129 0 -16 -9 -30 -20 -30 -11 0 -20 -9 -20 -20 0 -11 10 -18 23 -15 12 3 25 -4 30 -16 4 -11 -21 -20 -58 -20 -64 1 -65 2 -65 94 0 51 -7 100 -15 108 -25 26 -17 49 16 49 20 0 26 -9 16 -25 -10 -17 -4 -16 19 2 19 16 34 40 34 56 0 18 20 26 58 23 38 -3 54 -13 48 -30z m-514 -117 c-15 -41 -46 -36 -57 9 -14 53 27 93 51 51 9 -17 12 -44 6 -60z m207 -11 c-26 -48 -79 -49 -79 -2 0 54 41 88 73 61 19 -15 21 -32 6 -59z m-216 -98 c3 -58 4 -63 37 -140 16 -38 47 -86 69 -105 35 -29 37 -37 11 -55 -71 -47 -230 264 -167 327 25 25 47 13 50 -27z m193 -47 c4 -29 -3 -53 -15 -53 -25 0 -61 82 -47 106 19 32 56 0 62 -53z m117 -46 c-17 -18 45 -87 78 -87 14 0 30 -13 36 -30 8 -20 -1 -30 -28 -30 -22 0 -39 13 -39 31 0 17 -8 26 -18 20 -10 -6 -42 -3 -70 8 -56 21 -53 72 5 88 18 4 37 9 41 11 5 1 3 -4 -5 -11z m327 -217 c0 -14 -14 -36 -30 -50 -26 -22 -29 -20 -18 7 17 46 -17 41 -47 -7 -35 -55 -71 -51 -55 5 30 101 150 137 150 45z m100 -28 c0 -78 -18 -122 -50 -122 -22 0 -28 92 -11 175 8 38 61 -8 61 -53z m-400 -4 c0 -20 68 -11 85 12 9 13 14 12 15 -3 0 -38 -57 -72 -95 -57 -19 8 -61 16 -93 18 -32 1 -62 14 -67 28 -7 19 13 25 73 21 45 -3 82 -11 82 -19z m160 -118 c0 -11 -9 -20 -20 -20 -12 0 -31 -22 -44 -50 -31 -69 -142 -74 -132 -5 5 37 18 44 71 42 44 -2 65 6 65 25 0 15 14 28 30 28 17 0 30 -9 30 -20z m-267 -180 c-16 -91 -32 -130 -53 -130 -45 0 -32 230 14 265 54 40 64 4 39 -135z m456 77 c2 -43 -4 -50 -35 -39 -20 8 -36 20 -35 28 0 8 1 28 1 45 0 56 66 23 69 -34z m-189 -48 c0 -16 10 -29 22 -29 17 0 16 -8 -1 -28 -18 -23 -14 -37 19 -67 44 -42 37 -105 -12 -105 -19 0 -28 23 -28 69 0 38 -9 74 -20 81 -11 7 -20 39 -20 72 0 35 8 55 20 48 11 -7 20 -25 20 -41z m140 -44 c-1 -37 -39 -70 -68 -59 -42 17 -19 74 30 74 21 0 38 -7 38 -15z m-430 -243 c0 -29 -13 -50 -32 -53 -54 -8 -84 22 -68 70 19 62 100 49 100 -17z m387 -82 c6 -39 0 -44 -40 -33 -26 7 -63 13 -82 13 -44 0 -45 36 -2 84 42 46 113 9 124 -64z m-264 -71 c7 -18 3 -41 -8 -52 -30 -30 -107 15 -92 53 15 40 85 38 100 -1z m165 -7 c22 -14 19 -22 -14 -40 -51 -27 -98 -28 -114 -2 -31 51 64 82 128 42z"/> <path d="M1924 5536 c-29 -29 -32 -63 -4 -46 11 7 20 5 20 -4 0 -9 33 -18 72 -20 69 -3 81 17 16 26 -60 9 -90 28 -78 48 17 27 3 25 -26 -4z"/> <path d="M4260 5520 c-122 -66 -127 -68 -135 -44 -11 33 -77 30 -158 -9 -66 -31 -120 -31 -297 3 l-60 12 56 -26 c31 -14 56 -33 55 -41 0 -8 6 -13 14 -10 8 3 12 13 9 23 -3 10 7 8 22 -5 17 -14 91 -23 177 -23 238 2 247 1 204 -29 -22 -14 -119 -26 -236 -29 -128 -3 -219 -15 -256 -35 -56 -29 -57 -28 -35 12 24 47 12 81 -30 81 -15 0 -33 19 -41 43 -22 69 -50 -1 -53 -132 -3 -115 -11 -128 -52 -87 -14 14 -2 -41 26 -121 48 -137 107 -363 118 -453 3 -22 12 -60 20 -84 7 -24 17 -76 21 -117 17 -173 91 -408 91 -288 0 55 147 10 163 -50 19 -70 21 -67 -62 -84 -60 -12 -64 -10 -52 30 8 26 5 43 -8 43 -11 0 -21 -10 -21 -21 0 -12 -9 -16 -20 -9 -11 7 -20 -7 -20 -31 0 -25 16 -47 39 -53 52 -14 69 -64 26 -81 -29 -11 -27 -15 15 -26 37 -9 49 -23 45 -57 -3 -29 16 -62 55 -95 33 -28 60 -68 60 -89 0 -40 -29 -51 -50 -19 -6 11 -52 38 -101 59 -49 22 -95 53 -101 69 -10 27 -74 47 -263 84 -51 9 -65 5 -65 -19 0 -80 -72 -176 -178 -237 -60 -34 -99 -66 -85 -71 13 -4 46 7 73 24 83 55 103 16 25 -49 -55 -46 -135 -51 -135 -9 0 42 -66 38 -165 -10 -45 -22 -95 -40 -109 -40 -25 0 -140 -69 -207 -124 -150 -124 -136 -293 23 -285 69 4 114 -2 107 -12 -6 -11 -2 -19 10 -19 30 0 25 -63 -10 -109 -28 -37 -31 -37 -63 -5 -22 21 -25 34 -10 34 13 0 24 19 24 43 0 43 0 43 -40 -3 -22 -25 -40 -35 -40 -21 0 14 -12 20 -28 15 -26 -10 -114 69 -110 100 0 8 -11 19 -26 25 -14 6 -29 28 -32 48 -14 78 -147 253 -179 235 -17 -9 -47 -12 -68 -7 -24 6 -37 -1 -37 -20 0 -17 18 -35 40 -41 22 -6 40 -25 40 -42 0 -18 10 -32 21 -32 12 0 16 -9 9 -20 -7 -11 6 -20 29 -20 22 0 41 -10 41 -22 0 -12 -13 -17 -28 -11 -16 6 -34 -3 -41 -20 -8 -23 -3 -28 22 -19 20 8 48 -3 71 -28 21 -23 49 -35 62 -27 18 11 19 8 1 -14 -13 -16 -19 -56 -13 -89 22 -133 -14 -234 -58 -164 -9 13 -16 17 -16 9 0 -22 -120 88 -120 111 0 10 18 14 40 8 22 -6 40 -3 40 6 0 22 -59 43 -82 29 -10 -6 -18 -3 -18 8 0 10 -12 23 -27 29 -14 6 -26 -2 -26 -18 0 -15 7 -28 16 -28 10 0 17 -19 17 -41 0 -23 9 -36 20 -29 11 7 20 2 20 -11 0 -12 20 -51 45 -86 25 -35 43 -65 40 -68 -17 -17 -1 -65 18 -53 16 10 20 -2 13 -38 -6 -29 -5 -51 2 -51 38 5 48 -6 22 -23 -25 -16 -24 -19 6 -20 20 0 32 -7 27 -16 -6 -9 -2 -29 8 -45 14 -22 18 -22 19 -3 0 15 9 21 20 14 12 -7 15 -21 9 -31 -6 -11 18 -19 54 -19 48 0 59 -6 42 -23 -17 -17 -15 -29 5 -50 16 -16 23 -41 17 -56 -7 -19 3 -28 29 -26 28 2 38 17 37 49 -2 28 -13 43 -28 37 -14 -5 -25 3 -25 19 0 45 95 61 137 22 40 -36 83 -42 83 -13 0 11 15 14 34 7 21 -8 25 -16 10 -21 -15 -5 -19 -27 -12 -57 8 -29 4 -48 -10 -48 -12 0 -23 -20 -24 -45 -2 -34 -5 -36 -12 -10 -10 40 -37 46 -58 11 -8 -13 -4 -27 8 -31 32 -11 31 -85 -1 -85 -17 -1 -15 -7 4 -19 17 -11 35 -11 40 -2 6 9 22 5 36 -10 16 -17 17 -31 4 -39 -11 -7 -14 -23 -6 -34 7 -12 -3 -34 -24 -49 -20 -15 -26 -27 -13 -27 13 0 17 -14 10 -33 -10 -25 -5 -31 18 -22 17 7 43 1 57 -12 19 -18 22 -16 13 12 -9 23 -3 35 17 35 30 0 36 -19 30 -93 -3 -35 5 -42 38 -33 29 7 41 1 41 -22 0 -17 9 -32 20 -32 11 0 20 13 20 29 0 16 27 57 60 91 33 34 60 75 60 91 0 16 14 29 30 29 17 0 30 13 30 28 0 15 16 34 35 41 28 11 30 8 10 -12 -41 -41 -29 -57 44 -57 57 0 67 -6 57 -33 -10 -26 -5 -31 21 -21 21 8 33 3 33 -17 0 -16 7 -29 15 -28 23 1 95 59 73 59 -11 0 -19 18 -19 39 0 29 6 34 25 17 25 -20 36 1 28 50 -2 10 5 12 14 6 10 -5 13 -38 8 -71 -11 -75 20 -79 66 -9 27 41 29 57 9 75 -17 15 -21 16 -13 1 7 -12 0 -39 -15 -60 -26 -35 -28 -34 -27 26 2 49 12 66 50 75 26 7 42 21 36 32 -7 10 -2 19 10 19 12 0 17 9 10 20 -7 11 1 20 18 20 19 0 26 11 19 30 -6 17 -1 30 11 30 12 0 22 29 23 65 0 72 37 133 72 121 13 -5 30 3 38 16 11 18 5 21 -20 11 -29 -11 -34 -6 -25 27 7 28 0 40 -23 40 -29 1 -29 3 -3 20 52 33 139 25 94 -9 -23 -17 -29 -32 -15 -40 11 -7 21 -3 21 10 0 14 17 19 40 13 26 -7 40 0 40 18 0 15 -11 28 -24 28 -13 0 -6 14 15 31 22 18 28 26 14 19 -16 -8 -25 3 -25 30 0 35 9 40 45 30 40 -10 41 -9 9 11 -27 17 -43 16 -65 -2 -23 -19 -35 -19 -58 0 -25 21 -28 15 -22 -37 6 -48 0 -62 -25 -62 -29 0 -34 22 -33 140 0 77 -7 140 -17 140 -11 0 -10 11 1 25 23 30 29 155 7 155 -24 0 -12 114 16 147 18 23 18 32 -2 41 -14 6 -3 6 24 -1 63 -15 103 -46 89 -69 -6 -10 4 -18 22 -18 27 0 29 6 10 29 -14 16 -18 40 -10 53 10 15 7 19 -8 10 -13 -8 -41 -1 -64 14 l-41 29 43 11 c24 6 37 21 30 33 -21 33 -40 26 -103 -38 -64 -66 -99 -78 -80 -29 13 33 -22 180 -51 219 -10 14 20 33 84 54 83 26 99 27 99 3 0 -15 9 -28 20 -28 11 0 20 -10 20 -21 0 -12 -8 -16 -18 -10 -10 6 -23 -3 -30 -21 -18 -47 -15 -53 18 -41 18 7 30 0 30 -18 0 -16 8 -29 19 -29 29 0 44 36 21 50 -52 32 36 90 136 90 73 0 113 52 118 150 5 131 17 173 52 193 31 17 31 22 -6 62 -45 48 -57 114 -14 79 28 -24 61 -9 69 31 7 33 -29 33 -40 0 -7 -20 -15 -20 -40 1 -19 16 -34 18 -38 5 -5 -13 -17 -13 -37 1 -23 16 -24 24 -5 31 14 6 25 19 25 30 0 11 -9 14 -20 7 -11 -7 -20 8 -20 35 0 26 -11 58 -24 71 -19 19 -16 24 10 24 44 0 43 11 -6 60 -30 30 -40 33 -40 11 0 -18 -12 -25 -30 -18 -44 17 -37 58 15 83 25 12 34 22 20 23 -56 3 -31 200 28 222 41 16 48 26 30 44 -28 28 -31 62 -3 45 11 -7 36 3 54 21 32 32 31 33 -13 19 -96 -30 22 245 178 415 90 99 99 115 62 115 -31 0 -42 10 -37 35 4 19 16 35 28 35 12 0 61 45 108 100 82 94 109 107 178 88 36 -11 51 34 15 48 -70 27 -218 39 -205 17 8 -13 3 -23 -12 -23 -14 0 -48 -6 -76 -13 -49 -12 -49 -11 -10 20 54 43 15 39 -70 -7z m66 -135 c-7 -19 -30 -50 -51 -68 -20 -19 -39 -51 -40 -72 -2 -20 -23 -53 -49 -72 -60 -45 -47 -8 48 142 65 101 119 142 92 70z m-575 -239 c-6 -15 3 -33 20 -39 17 -7 29 -27 27 -44 -9 -75 23 -107 74 -74 67 44 108 -24 47 -80 -21 -19 -39 -47 -39 -61 0 -14 -16 -36 -35 -47 -29 -18 -26 -19 18 -10 71 16 88 -19 32 -64 -45 -37 -61 -199 -29 -287 22 -62 34 -200 16 -200 -20 0 -45 81 -51 165 -3 31 -22 68 -43 84 -35 26 -35 30 -4 64 54 60 24 180 -59 233 -33 21 -32 83 1 111 20 16 34 15 53 -2 20 -20 22 -12 11 45 -18 86 -27 97 -51 59 -17 -28 -31 32 -20 89 2 10 -11 7 -28 -7 -38 -32 -66 -13 -36 24 11 14 26 60 34 103 l14 78 29 -57 c16 -31 25 -69 19 -83z m330 -27 c47 -67 37 -110 -12 -48 -52 68 -72 109 -51 109 11 0 39 -28 63 -61z m-18 -164 c-29 -29 -90 24 -124 108 -21 50 -20 64 1 77 38 23 155 -153 123 -185z m-163 -976 c0 -49 -57 -75 -82 -37 -11 19 -6 36 16 53 48 35 66 31 66 -16z m46 -107 c14 -35 -2 -52 -49 -52 -24 0 -37 15 -37 40 0 47 70 56 86 12z m94 -264 c0 -46 -2 -46 -40 -13 -22 18 -40 45 -40 58 0 13 17 19 40 13 26 -7 40 -27 40 -58z m-528 32 c42 0 34 -53 -16 -99 -64 -60 -96 -52 -96 26 0 75 16 99 56 84 15 -6 40 -11 56 -11z m153 -97 c8 -30 1 -36 -31 -27 -27 7 -36 3 -26 -13 9 -14 -1 -23 -26 -23 -28 0 -37 9 -29 30 6 17 24 30 39 30 15 0 28 9 28 20 0 35 35 21 45 -17z m-265 -63 c27 -18 27 -22 0 -40 -50 -33 -98 -6 -70 40 15 25 32 25 70 0z m125 -128 c-6 -10 -2 -12 10 -5 32 20 108 -136 79 -165 -40 -40 -71 -23 -95 53 -13 41 -37 105 -54 141 -28 61 -28 68 7 93 39 29 83 -68 53 -117z m-594 20 c16 -16 46 -24 68 -18 80 21 111 -10 55 -54 -56 -45 -106 -36 -125 22 -22 69 -63 32 -52 -46 2 -8 -10 -10 -25 -4 -16 6 -31 -7 -38 -32 -9 -33 -3 -39 26 -30 90 29 45 -74 -48 -109 -37 -14 -67 -14 -92 -1 -21 11 -49 18 -62 15 -13 -3 -27 6 -32 20 -6 15 7 25 32 25 23 0 42 -11 43 -25 0 -14 9 -9 21 10 11 19 33 35 49 35 16 0 29 8 29 17 0 39 83 203 102 203 12 0 34 -13 49 -28z m438 -53 c-18 -20 -27 -46 -20 -58 7 -11 5 -21 -5 -21 -24 0 -45 75 -31 110 5 14 27 21 49 15 37 -9 37 -13 7 -46z m-619 -79 c0 -35 -105 -53 -135 -23 -33 33 6 66 72 59 40 -4 63 -17 63 -36z m490 -82 c0 -30 11 -58 25 -63 19 -7 19 -16 -2 -42 -24 -28 -23 -33 5 -33 51 0 35 -66 -28 -115 -66 -53 -104 -25 -50 36 44 48 25 108 -30 93 -55 -14 -74 26 -29 59 24 17 30 34 18 46 -23 23 -113 4 -99 -19 9 -14 -48 -47 -68 -40 -22 9 -37 -51 -16 -64 15 -9 0 -20 -40 -28 -45 -9 -60 -21 -52 -42 8 -21 16 -23 26 -6 10 16 18 14 27 -8 7 -19 -6 -48 -32 -72 -39 -37 -41 -46 -17 -113 22 -59 22 -75 0 -88 -36 -23 -58 -5 -58 47 -1 70 -23 135 -42 123 -10 -6 -18 3 -18 20 0 17 7 31 16 31 9 0 18 33 21 74 5 82 28 105 103 106 37 0 43 5 22 18 -23 15 -20 23 14 44 37 23 38 28 9 49 -44 32 -19 89 34 75 45 -12 57 -46 16 -46 -17 -1 -15 -7 5 -20 39 -25 66 -25 51 -1 -7 11 22 37 63 59 88 46 126 21 126 -80z m280 -15 c0 -9 -17 -32 -38 -51 -41 -38 -75 -14 -54 39 11 31 92 41 92 12z m-452 -182 c-45 -48 -74 1 -34 58 31 45 34 46 47 9 9 -23 4 -50 -13 -67z m498 53 c12 -31 -58 -81 -87 -63 -27 16 -24 64 6 76 45 18 71 14 81 -13z m-137 -69 c24 -59 -192 -239 -218 -182 -16 35 -5 55 74 129 102 97 124 105 144 53z m267 -10 c-3 -25 -15 -45 -26 -45 -11 0 -23 20 -26 45 -5 31 3 45 26 45 23 0 31 -14 26 -45z m-85 -37 c13 -43 -15 -77 -66 -78 -32 0 -33 64 -1 96 35 35 51 30 67 -18z m-460 -40 c15 -23 -74 -118 -110 -118 -37 0 -22 63 24 101 53 44 68 47 86 17z m507 -120 c-42 -59 -46 -61 -71 -27 -30 41 1 98 45 81 13 -5 31 6 39 24 9 23 17 26 23 9 5 -13 -11 -53 -36 -87z m-878 42 c0 -11 -9 -20 -20 -20 -11 0 -18 -10 -15 -22 3 -13 -6 -27 -20 -32 -26 -10 -36 57 -12 81 21 20 67 15 67 -7z m-141 -79 c50 -93 -1 -201 -96 -201 -106 0 -155 105 -92 196 41 58 158 62 188 5z m690 -6 c-24 -77 -53 -103 -74 -65 -13 23 -8 44 16 71 47 52 75 49 58 -6z m-283 -37 c14 -51 -2 -98 -32 -98 -15 0 -14 8 2 24 28 28 33 64 6 47 -9 -6 -22 7 -28 29 -6 25 0 40 16 40 14 0 30 -19 36 -42z m654 -89 c0 -53 -9 -89 -23 -89 -14 0 -19 -24 -12 -65 11 -74 1 -115 -29 -115 -11 0 -16 18 -10 40 6 22 2 40 -8 40 -10 0 -18 -13 -18 -30 0 -26 -147 -150 -178 -150 -7 0 -29 55 -50 122 -41 130 -18 200 56 171 40 -15 41 -71 2 -86 -42 -16 -37 -42 12 -68 85 -46 183 52 168 168 -9 76 -4 106 22 135 47 52 68 30 68 -73z m-460 37 c0 -35 -75 -126 -103 -126 -28 0 -19 68 14 116 37 52 89 58 89 10z m-411 -38 c39 -39 21 -72 -36 -64 -47 6 -72 31 -73 71 0 35 71 31 109 -7z m561 -28 c-20 -22 -50 -40 -66 -40 -25 0 -24 7 6 40 20 22 50 40 66 40 25 0 24 -7 -6 -40z m-373 -47 c27 -32 10 -53 -40 -53 -24 0 -37 15 -37 40 0 46 44 53 77 13z m-106 -35 c8 -12 1 -35 -15 -50 -34 -34 -112 9 -88 49 18 29 85 30 103 1z m439 -160 c37 -119 29 -156 -33 -158 -32 0 -83 219 -57 250 40 48 52 37 90 -92z m-270 94 c0 -5 5 -22 11 -38 8 -21 -6 -32 -51 -38 -66 -10 -90 8 -72 55 9 25 112 44 112 21z m200 -269 c0 -14 -11 -23 -24 -18 -28 9 -79 193 -62 221 12 20 86 -155 86 -203z m285 53 c-26 -25 -60 -37 -97 -33 l-58 7 90 63 c98 68 144 42 65 -37z m-465 29 c0 -74 -38 -205 -59 -205 -18 0 -61 154 -61 219 0 32 13 41 60 41 52 0 60 -7 60 -55z m-160 -49 c0 -23 11 -77 24 -120 19 -66 18 -82 -5 -97 -24 -15 -22 -18 7 -19 29 0 32 -7 14 -40 -26 -50 -84 -53 -78 -5 2 19 -6 59 -18 89 -17 41 -16 80 1 154 23 97 55 120 55 38z m397 -119 c-57 -44 -70 -45 -84 -8 -7 18 14 44 53 69 81 52 108 -2 31 -61z"/> <path d="M4499 5418 c-16 -24 -41 -55 -55 -70 -15 -16 -24 -44 -20 -63 4 -24 26 -3 71 70 62 101 65 151 4 63z"/> <path d="M2085 5415 c4 -14 27 -34 50 -44 23 -11 41 -35 39 -54 -2 -24 -10 -29 -25 -16 -12 10 -28 13 -35 6 -18 -17 24 -90 45 -78 9 6 22 -2 28 -18 17 -45 93 -80 93 -42 0 18 -12 25 -30 18 -21 -8 -30 2 -30 36 1 38 4 41 20 17 11 -16 20 -22 20 -12 0 10 19 1 41 -19 34 -31 47 -33 75 -13 19 14 50 30 69 37 48 16 44 30 -21 88 -31 27 -66 65 -77 85 -20 37 -87 29 -87 -10 0 -11 14 -15 31 -8 18 6 29 1 27 -13 -6 -53 3 -73 42 -85 22 -7 40 -28 39 -46 0 -31 -3 -31 -27 1 -16 21 -40 31 -59 23 -21 -8 -33 -2 -33 15 0 15 -19 39 -42 53 -23 15 -37 39 -31 54 7 18 1 24 -16 18 -15 -6 -33 -1 -40 11 -19 30 -76 26 -66 -4z"/> <path d="M4727 5364 c-40 -27 -48 -84 -11 -86 20 -1 24 -5 9 -11 -13 -6 -51 9 -83 31 -74 54 -98 43 -172 -73 -33 -52 -96 -140 -140 -195 -45 -55 -101 -134 -125 -175 l-44 -75 58 29 c44 23 55 41 48 76 -12 56 21 10 42 -60 11 -37 8 -43 -23 -32 -29 11 -31 8 -11 -14 14 -15 25 -41 25 -58 -1 -27 -3 -27 -20 -1 -11 17 -21 21 -23 10 -2 -11 -5 -29 -8 -40 -2 -11 -5 -40 -7 -64 -1 -32 -11 -41 -34 -32 -28 10 -29 6 -5 -32 24 -39 22 -48 -21 -80 -30 -23 -42 -46 -32 -61 9 -15 3 -33 -12 -43 -24 -15 -24 -21 1 -36 23 -16 24 -24 3 -50 -24 -29 -20 -201 6 -226 15 -16 92 15 92 37 0 10 -8 15 -17 9 -82 -51 -92 117 -13 196 31 31 56 92 72 174 14 70 41 144 61 166 20 21 30 47 23 58 -7 11 -4 15 6 9 36 -23 83 37 98 125 14 81 12 87 -17 62 -43 -36 -42 -23 14 102 49 112 113 184 127 143 4 -12 25 -18 47 -13 72 19 40 -129 -50 -237 -37 -43 -52 -92 -62 -197 -13 -126 -49 -200 -49 -99 0 23 -8 36 -18 30 -10 -6 -14 7 -8 29 6 22 3 40 -7 40 -28 0 -90 -116 -69 -129 80 -49 0 -355 -92 -352 -16 0 -20 -20 -24 -125 -1 -32 -11 -51 -22 -44 -11 7 -20 3 -20 -9 0 -11 14 -21 30 -21 17 0 30 13 30 29 0 20 12 25 33 17 26 -10 31 -5 21 20 -7 18 -4 38 7 45 10 6 19 37 19 69 0 35 16 69 41 86 22 16 39 37 37 46 -9 52 2 69 28 45 20 -18 23 -51 11 -126 -9 -55 -18 -198 -20 -316 -2 -139 -11 -215 -25 -215 -14 -1 -14 -6 2 -16 13 -8 23 -43 22 -78 -1 -35 13 -78 31 -96 31 -31 33 -27 26 49 -4 45 -13 88 -20 94 -6 7 2 31 18 54 16 23 29 58 29 77 0 20 9 36 21 36 13 0 17 32 9 85 -29 213 -30 250 -15 335 10 55 9 111 -3 145 -16 43 -14 62 12 87 29 30 33 29 45 -10 8 -23 23 -42 35 -42 13 0 10 -15 -8 -35 -30 -35 -34 -307 -6 -420 6 -25 2 -45 -9 -45 -33 0 0 -58 41 -71 44 -14 52 -69 10 -69 -57 0 -56 -68 2 -115 l56 -45 -60 -1 c-56 0 -57 -2 -23 -28 20 -16 31 -38 23 -51 -7 -12 -18 -69 -24 -126 -5 -57 -18 -107 -29 -111 -26 -10 21 -63 55 -63 16 0 28 -15 28 -34 0 -26 -5 -29 -24 -10 -32 32 -56 30 -56 -4 0 -15 13 -33 30 -39 17 -7 24 -25 17 -43 -7 -20 -2 -29 13 -26 14 3 27 -16 30 -44 6 -64 -10 -92 -32 -57 -12 19 -17 10 -18 -28 0 -30 10 -55 22 -55 16 0 14 -10 -3 -31 -16 -20 -24 -74 -21 -140 3 -71 -3 -109 -18 -109 -12 0 -17 9 -10 20 7 11 -8 20 -34 20 -37 0 -48 -12 -51 -55 -4 -41 0 -48 14 -25 15 23 19 20 16 -15 -4 -50 -24 -58 -49 -20 -16 27 -20 38 -23 85 -2 17 -16 30 -31 30 -18 0 -25 -14 -18 -40 6 -22 1 -40 -12 -40 -12 0 -22 -9 -22 -20 0 -11 18 -20 40 -20 22 0 40 -9 40 -20 0 -11 -18 -20 -40 -20 -47 0 -51 -17 -12 -48 35 -27 62 -112 36 -112 -11 0 -25 20 -31 44 -16 61 -32 38 -19 -27 7 -37 26 -58 62 -67 29 -7 43 -19 33 -26 -24 -18 -27 -124 -4 -124 10 0 2 -16 -17 -35 -34 -33 -34 -35 7 -41 23 -4 47 -20 54 -37 8 -22 3 -28 -19 -20 -16 7 -30 3 -30 -8 0 -10 14 -19 32 -19 20 0 28 -11 21 -29 -6 -17 -3 -35 8 -42 25 -15 25 -69 -1 -69 -11 0 -21 16 -22 35 -1 19 -10 5 -21 -32 -10 -37 -15 -77 -10 -90 6 -13 11 -3 11 22 3 60 72 62 77 2 2 -24 13 -50 26 -57 12 -8 20 -18 18 -22 -10 -17 25 -98 42 -98 33 0 21 -34 -29 -82 -50 -48 -51 -98 -2 -58 21 17 32 13 48 -17 15 -28 15 -42 0 -47 -12 -4 -3 -29 21 -60 30 -38 34 -55 16 -61 -19 -7 -16 -19 8 -47 27 -30 30 -56 18 -122 -17 -93 -8 -117 31 -84 19 15 36 15 62 -2 33 -21 33 -22 1 -12 -19 6 -35 2 -35 -9 0 -10 15 -19 34 -19 26 0 29 -5 10 -24 -36 -36 -29 -72 16 -86 32 -10 38 -26 30 -85 -9 -72 19 -134 52 -114 10 6 18 3 18 -8 0 -11 18 -14 40 -9 33 9 36 16 17 40 -20 24 -16 25 30 4 79 -36 65 -71 -24 -59 -15 2 -22 -5 -15 -15 6 -11 -3 -18 -21 -17 -18 2 -37 -10 -42 -25 -7 -18 -2 -22 15 -12 16 10 36 2 53 -21 15 -20 27 -26 27 -13 0 13 9 24 20 24 29 0 25 -55 -5 -67 -14 -5 2 -11 35 -12 46 -1 53 -6 30 -21 -25 -15 -26 -26 -5 -59 15 -24 17 -41 5 -41 -11 0 -20 -10 -20 -22 0 -13 17 -18 38 -13 30 8 37 1 32 -27 -4 -21 1 -38 11 -38 11 0 18 -7 17 -15 -9 -52 5 -125 23 -125 12 0 16 9 9 20 -7 11 2 20 19 20 17 0 31 11 31 25 1 18 5 18 18 -2 9 -15 13 -47 8 -70 -9 -42 -8 -42 22 -5 20 25 25 47 13 61 -10 12 -33 67 -52 121 -31 93 -65 171 -182 419 -26 54 -47 109 -47 120 0 12 -16 44 -35 71 -18 27 -37 67 -40 89 -3 22 -13 44 -21 50 -23 18 -64 138 -117 341 -75 288 -90 346 -108 400 -73 214 -94 731 -34 796 26 27 48 82 54 140 11 91 13 94 72 88 67 -6 129 68 99 117 -10 16 -6 21 12 14 15 -5 27 -24 25 -42 -1 -18 5 -33 15 -33 35 0 17 -42 -25 -57 -36 -13 -22 -22 80 -50 67 -19 150 -58 183 -86 52 -44 75 -50 145 -41 72 10 92 3 149 -47 83 -72 147 -90 229 -61 89 31 104 28 164 -27 l53 -49 0 144 c-1 159 -24 226 -62 174 -17 -24 -20 -22 -12 13 6 30 -5 50 -39 68 -29 16 -44 38 -37 58 6 19 -8 43 -35 59 -25 15 -38 20 -30 11 8 -8 5 -27 -8 -42 -17 -21 -14 -27 12 -27 19 0 28 -9 20 -22 -10 -15 -20 -15 -35 0 -30 30 -54 28 -54 -5 0 -15 20 -28 45 -28 83 0 97 -5 85 -25 -7 -11 4 -20 24 -20 29 -1 31 -4 7 -19 -24 -15 -24 -23 -2 -49 16 -21 18 -32 4 -32 -12 0 -17 -14 -10 -30 14 -38 -31 -95 -65 -82 -14 5 -88 56 -165 111 -77 56 -147 101 -156 99 -44 -7 -65 6 -71 45 -7 51 -56 76 -56 29 0 -18 -10 -32 -21 -32 -13 0 -16 17 -9 41 7 22 6 39 -3 37 -59 -10 -70 7 -22 33 57 32 77 76 25 56 -19 -7 -30 1 -30 22 0 19 -9 28 -22 20 -15 -10 -15 -20 0 -35 30 -30 28 -54 -5 -54 -40 0 -87 62 -102 135 -8 36 -23 60 -33 54 -33 -21 -19 76 15 101 30 21 27 26 -20 37 -43 11 -53 26 -53 73 0 33 -9 60 -20 60 -11 0 -20 -9 -20 -20 0 -11 -9 -20 -19 -20 -24 0 -3 64 28 85 14 10 13 14 -4 15 -14 0 -25 20 -24 45 0 39 3 41 25 14 13 -17 40 -37 59 -45 19 -7 35 -27 35 -45 0 -17 8 -26 19 -20 10 6 25 1 32 -11 8 -12 2 -30 -13 -39 -15 -9 -20 -23 -12 -31 22 -22 42 8 46 68 1 30 4 71 5 91 2 24 13 33 33 26 22 -9 30 3 30 47 0 39 8 56 25 49 14 -5 42 18 62 51 20 33 44 56 54 49 10 -6 13 4 6 22 -11 28 -7 30 27 12 32 -17 49 -13 84 20 25 22 49 37 53 32 14 -14 -62 -157 -77 -146 -8 6 -10 6 -5 -1 5 -7 1 -33 -9 -58 -12 -32 -9 -57 12 -83 29 -35 29 -35 10 5 -23 49 -7 77 28 48 17 -14 23 -1 24 45 2 133 30 174 200 287 121 80 216 175 186 185 -31 10 -24 43 10 43 20 0 30 20 30 60 0 59 -1 60 -110 60 -81 0 -110 -7 -110 -28 0 -39 -56 -56 -103 -31 -46 25 -17 79 42 79 38 0 101 60 101 95 0 41 39 48 84 16 97 -67 137 53 42 124 -19 14 -26 25 -18 25 9 0 1 24 -18 53 -24 37 -28 56 -12 66 16 9 8 30 -23 64 -56 60 -118 89 -102 46 7 -18 -1 -29 -23 -29 -45 0 -230 85 -230 106 0 9 -10 10 -22 3 -24 -15 -194 28 -210 54 -34 55 93 61 198 10 106 -52 205 -75 124 -29 -22 13 -58 42 -80 66 -62 66 -150 115 -218 120 -34 3 -62 14 -62 26 0 11 -8 28 -18 37 -11 10 -12 7 -4 -8 24 -42 -42 -29 -168 35 -73 37 -150 60 -198 60 -104 0 -125 35 -27 45 l75 6 -60 17 c-33 9 -70 29 -81 43 -12 14 -30 20 -42 13z m-73 -123 c23 -22 80 -42 129 -47 63 -6 53 -8 -39 -8 -100 0 -130 7 -145 36 -37 70 -10 80 55 19z m445 -111 c49 -50 15 -48 -79 3 l-90 49 70 -11 c38 -7 83 -25 99 -41z m-59 -76 c0 -9 -16 -15 -35 -13 -65 7 -81 -1 -78 -36 2 -28 -11 -34 -70 -29 -82 6 -137 -46 -137 -130 0 -49 -30 -58 -80 -26 -25 16 -20 28 30 71 33 29 49 46 35 39 -14 -7 -25 -3 -25 9 0 11 14 21 30 21 17 0 30 13 30 28 0 15 31 55 69 89 l70 61 80 -34 c44 -19 81 -41 81 -50z m80 -64 c0 -16 -12 -30 -27 -30 -15 0 -43 -18 -63 -40 -34 -38 -70 -37 -70 1 0 34 79 99 120 99 22 0 40 -13 40 -30z m73 -22 c3 -52 -130 -198 -181 -198 -51 0 -29 67 36 112 39 26 81 68 95 93 31 59 46 57 50 -7z m-293 -148 c0 -27 -13 -40 -40 -40 -45 0 -51 21 -16 56 35 35 56 29 56 -16z m511 -34 c37 -48 36 -60 -12 -128 -29 -41 -34 -58 -15 -59 14 0 -14 -35 -64 -78 -49 -43 -84 -84 -76 -92 28 -28 -24 -94 -55 -69 -41 35 -73 6 -44 -40 13 -21 17 -45 8 -54 -8 -8 -23 -2 -33 13 -13 22 -23 23 -45 5 -48 -40 -57 -1 -10 41 l45 39 -45 31 c-25 16 -45 42 -45 57 0 37 58 36 99 -1 38 -34 198 86 171 128 -7 12 6 54 28 93 52 88 52 88 -6 88 -57 0 -101 -48 -84 -91 9 -24 1 -30 -33 -25 -67 9 -65 63 5 132 69 70 163 74 211 10z m-261 -26 c-17 -33 -44 -60 -61 -60 -38 0 -37 12 6 71 53 72 94 64 55 -11z m-435 -51 c79 -50 62 -102 -22 -70 -29 11 -53 29 -53 40 0 11 -13 15 -30 8 -18 -7 -30 0 -30 18 0 62 41 64 135 4z m285 13 c0 -25 -59 -70 -73 -56 -20 21 10 74 42 74 17 0 31 -8 31 -18z m660 -43 c-51 -33 -125 -46 -155 -27 -52 33 -36 56 42 61 43 3 83 10 89 16 6 7 21 2 32 -9 15 -15 13 -27 -8 -41z m-560 -40 c0 -30 -60 -47 -82 -25 -35 35 1 88 44 65 21 -11 38 -29 38 -40z m-247 -10 c16 -41 -21 -78 -63 -62 -25 10 -27 21 -10 53 26 48 57 52 73 9z m932 -142 c-13 -72 -52 -117 -128 -148 -79 -33 -123 15 -51 55 24 14 35 25 24 25 -11 1 -21 26 -23 56 -1 30 -6 73 -10 95 -6 32 4 40 48 39 30 0 55 9 56 20 0 12 21 -3 47 -32 34 -39 44 -69 37 -110z m-1095 73 c19 -21 42 -35 51 -29 37 23 78 -15 58 -53 -26 -49 -60 -49 -73 0 -10 41 -98 89 -127 71 -11 -6 -19 3 -19 20 0 44 67 39 110 -9z m230 0 c0 -22 -13 -40 -30 -40 -30 0 -41 42 -17 67 26 25 47 13 47 -27z m620 -60 c0 -11 -9 -20 -21 -20 -11 0 -45 -22 -74 -49 -29 -27 -58 -45 -64 -39 -6 6 5 23 24 37 19 14 29 30 23 37 -7 6 -6 21 1 33 17 27 111 28 111 1z m-580 -30 c0 -16 -7 -30 -17 -30 -9 0 -16 -13 -16 -29 0 -16 7 -25 15 -20 8 5 21 1 28 -11 7 -11 3 -20 -9 -20 -11 0 -21 -12 -21 -27 0 -38 -60 -85 -127 -101 -43 -11 -52 -20 -35 -40 21 -25 14 -196 -9 -234 -6 -10 -3 -18 8 -18 25 0 43 50 44 127 l1 63 27 -75 c40 -113 -15 -295 -89 -295 -23 1 -24 5 -5 17 19 12 13 27 -23 61 -27 26 -46 57 -42 69 5 13 12 82 18 153 12 169 62 293 103 259 22 -18 30 -18 37 4 4 15 15 45 23 67 9 22 16 45 18 50 11 55 71 80 71 30z m-219 -165 c-47 -132 -88 -172 -73 -71 19 131 49 197 77 169 17 -17 17 -41 -4 -98z m673 -77 c40 -62 41 -69 10 -87 -55 -31 -215 161 -171 205 21 22 115 -46 161 -118z m146 64 c0 -15 -14 -39 -31 -53 -38 -31 -80 2 -62 50 15 38 93 41 93 3z m-549 -131 c-6 -9 3 -22 19 -28 33 -13 41 -73 10 -73 -11 0 -18 -7 -16 -15 12 -40 -26 -148 -49 -140 -34 11 -37 96 -5 147 17 26 20 51 8 70 -14 22 -21 19 -30 -17 -18 -63 -44 -56 -39 10 10 123 28 148 73 103 22 -22 35 -47 29 -57z m246 37 c26 -33 42 -65 36 -72 -22 -21 -113 55 -113 94 0 55 22 48 77 -22z m319 -41 c-118 -102 -144 -70 -39 48 39 43 55 50 77 31 24 -19 17 -32 -38 -79z m-405 -174 c27 -22 49 -53 49 -70 0 -17 10 -37 22 -44 23 -14 12 -82 -28 -174 -29 -66 -63 -73 -47 -10 8 34 0 50 -37 68 -60 28 -80 -22 -31 -81 17 -22 21 -33 8 -26 -13 8 -28 0 -34 -16 -7 -17 -26 -30 -42 -30 -18 0 -31 -17 -31 -40 0 -22 -8 -40 -18 -40 -10 0 -34 -6 -54 -13 -23 -9 -30 -6 -20 9 9 16 3 19 -17 12 -17 -7 -31 -21 -31 -31 0 -10 -20 -26 -45 -36 -29 -12 -34 -19 -13 -20 17 0 48 -19 68 -41 20 -22 47 -40 61 -40 37 0 71 -110 42 -139 -17 -17 -15 -27 7 -42 25 -15 23 -18 -9 -19 -30 0 -34 -5 -15 -24 29 -29 32 -116 4 -116 -11 0 -20 14 -20 30 0 17 -9 30 -20 30 -11 0 -20 -18 -20 -40 0 -22 -9 -40 -20 -40 -11 0 -20 -13 -20 -30 0 -16 -9 -30 -20 -30 -11 0 -20 9 -20 20 0 11 -14 20 -31 20 -17 0 -26 9 -19 20 7 12 21 15 31 9 11 -6 19 -2 19 10 0 11 -11 21 -25 21 -17 1 -18 5 -3 15 18 13 68 130 68 160 0 5 -12 4 -28 -1 -48 -19 -115 44 -100 93 8 24 13 77 10 119 -5 102 16 170 40 132 15 -24 21 -24 36 0 12 19 38 24 80 15 35 -7 62 -4 62 8 0 10 -16 20 -35 21 -19 2 -44 5 -55 7 -11 3 -31 6 -45 8 -36 4 -31 83 5 83 17 0 31 7 31 15 4 37 20 117 29 140 15 43 54 28 40 -15 -8 -25 -4 -40 12 -40 14 0 4 -22 -22 -50 -30 -32 -37 -50 -20 -50 15 0 46 -17 69 -38 l41 -39 3 111 c2 62 12 117 21 124 10 7 19 33 21 59 4 71 24 78 66 23 21 -28 38 -42 39 -31 0 10 -18 37 -39 60 -28 30 -36 56 -26 92 14 48 14 48 21 4 4 -24 29 -61 55 -82z m258 -22 c13 -21 -80 -213 -113 -233 -35 -22 -32 2 18 127 49 121 71 146 95 106z m-313 -838 c14 -9 25 -42 24 -75 -1 -32 3 -100 8 -152 12 -126 -29 -110 -74 30 -61 188 -47 253 42 197z m824 -413 c-20 -24 -20 -30 3 -32 18 -1 19 -4 3 -11 -13 -5 -18 -24 -11 -42 7 -20 4 -27 -10 -18 -13 8 -20 38 -16 68 8 68 6 65 33 65 16 0 15 -9 -2 -30z"/> <path d="M4548 5050 c-7 -28 -26 -58 -43 -68 -19 -10 -26 -30 -18 -51 20 -53 61 -25 82 56 10 40 26 73 36 73 9 0 12 9 5 20 -22 35 -49 22 -62 -30z"/> <path d="M2740 5044 c0 -29 92 -68 142 -60 46 7 47 8 8 29 -58 31 -150 50 -150 31z"/> <path d="M2462 5011 c-41 -15 -59 -31 -45 -39 13 -8 24 -7 24 2 1 9 10 -4 20 -29 20 -52 63 -58 99 -15 14 17 42 30 62 30 21 0 38 8 38 17 0 26 -67 19 -96 -10 -35 -35 -84 -34 -84 1 0 18 14 25 40 18 28 -7 40 -1 40 22 0 36 -4 36 -98 3z"/> <path d="M659 4941 c12 -21 31 -45 42 -52 11 -7 15 -29 9 -49 -6 -20 -2 -42 9 -49 13 -9 21 16 21 67 0 59 -10 86 -39 101 -56 30 -65 26 -42 -18z"/> <path d="M318 4955 c-13 -43 -10 -75 6 -75 11 0 15 -15 7 -33 -7 -19 -1 -41 13 -50 20 -12 21 -20 1 -40 -34 -34 -31 -77 4 -77 18 0 25 -12 18 -30 -6 -18 0 -30 16 -30 18 -1 20 -6 6 -15 -47 -32 -46 -80 3 -106 32 -17 41 -31 26 -40 -13 -8 -17 -25 -9 -38 10 -15 22 -16 39 -3 17 14 24 9 26 -17 3 -31 -8 -36 -58 -30 -55 7 -58 5 -27 -18 39 -29 -6 -89 -48 -64 -12 8 -21 -1 -21 -18 0 -17 11 -31 23 -31 13 0 3 -23 -23 -50 l-47 -50 -43 40 c-23 22 -53 40 -66 40 -32 0 -31 40 1 41 93 6 178 39 99 39 -23 0 -52 17 -63 39 -25 46 -27 67 -5 53 9 -5 13 17 8 49 -6 44 -19 59 -51 59 -35 -1 -38 -4 -13 -20 27 -18 27 -22 0 -40 -27 -17 -27 -19 0 -20 25 -1 25 -4 3 -18 -18 -11 -20 -20 -5 -25 13 -4 1 -30 -29 -62 -28 -30 -42 -55 -32 -55 10 0 23 -22 28 -50 5 -27 2 -50 -8 -50 -9 0 -18 -16 -19 -35 -1 -23 -5 -26 -12 -9 -15 38 -65 -33 -65 -95 l-1 -50 31 45 c31 44 169 66 169 26 0 -9 18 -22 40 -28 43 -11 52 6 21 37 -37 37 10 81 51 48 32 -26 34 -25 22 6 -15 42 12 46 45 7 16 -20 16 -33 2 -41 -12 -8 -22 -33 -23 -57 -2 -34 -5 -36 -12 -9 -5 20 -17 31 -27 25 -25 -16 0 -70 33 -70 15 0 28 -13 28 -28 0 -39 55 -56 101 -31 47 25 50 51 7 75 -28 16 -28 25 -1 89 16 39 24 77 17 84 -7 7 -1 21 14 30 17 10 21 27 11 43 -28 45 -32 160 -7 191 13 15 18 34 11 41 -7 7 -13 2 -13 -12 0 -17 -10 -15 -31 6 -23 24 -26 40 -10 70 27 51 27 88 -1 71 -33 -20 -57 31 -45 93 10 49 7 52 -46 43 l-57 -10 49 43 c37 33 43 48 25 60 -14 8 -20 30 -13 48 8 21 1 38 -19 46 -17 7 -27 20 -21 30 6 10 2 18 -10 18 -11 0 -22 -2 -23 -5z m158 -800 c9 -43 -60 -48 -94 -7 -18 22 -18 31 2 39 45 18 85 4 92 -32z"/> <path d="M514 4920 c6 -22 22 -40 37 -40 14 0 31 -11 37 -25 6 -14 6 -2 -1 25 -12 47 -40 79 -70 80 -7 0 -9 -18 -3 -40z"/> <path d="M2094 4867 c-18 -30 86 -75 113 -48 15 15 11 21 -13 21 -19 0 -34 11 -34 25 -1 18 -5 18 -18 -2 -14 -22 -19 -23 -26 -1 -6 17 -13 19 -22 5z"/> <path d="M2234 4768 c-23 -23 6 -48 56 -48 26 0 53 9 60 20 7 11 -1 20 -17 20 -16 0 -42 5 -57 11 -16 5 -34 4 -42 -3z"/> <path d="M2406 4734 c-13 -13 -38 -36 -55 -50 -18 -15 -26 -36 -18 -48 9 -15 26 -7 48 21 20 24 54 43 77 43 49 0 56 30 10 48 -38 15 -33 16 -62 -14z"/> <path d="M2550 4740 c-7 -11 -5 -20 4 -20 9 0 5 -8 -9 -17 -20 -12 -17 -24 14 -52 39 -36 41 -35 58 11 28 76 -28 142 -67 78z"/> <path d="M595 4716 c-14 -39 7 -176 27 -176 10 0 19 16 20 35 1 19 3 61 5 93 3 60 -34 95 -52 48z"/> <path d="M153 4676 c-14 -54 -5 -65 38 -48 25 9 28 19 11 39 -12 15 -16 33 -8 40 7 7 3 13 -8 13 -12 0 -27 -20 -33 -44z"/> <path d="M771 4562 c-12 -20 87 -50 106 -32 14 14 -36 49 -71 50 -13 0 -29 -8 -35 -18z"/> <path d="M2409 4262 c11 -19 146 -13 166 7 7 6 -31 11 -83 11 -52 0 -89 -8 -83 -18z"/> <path d="M2002 4113 c-1 -39 -15 -60 -42 -67 -22 -6 -40 -18 -40 -28 0 -9 23 -8 50 2 32 12 50 12 50 0 0 -11 20 -19 45 -19 l45 2 -45 18 c-25 10 -45 28 -45 40 0 13 12 19 27 13 20 -8 24 4 17 42 -9 47 -12 49 -24 13 -14 -39 -15 -39 -25 1 -8 30 -11 26 -13 -17z"/> <path d="M93 3959 c-29 -23 -62 -36 -73 -29 -35 22 -22 -63 31 -204 79 -208 79 -206 34 -206 -21 0 -49 20 -61 45 -33 68 -32 -50 1 -142 20 -56 20 -71 0 -78 -41 -14 -28 -38 19 -37 56 2 98 -94 58 -133 -20 -20 -33 -16 -63 22 l-39 47 0 -60 c0 -73 18 -124 43 -124 10 0 8 20 -5 45 -18 36 -18 40 2 22 14 -13 39 -19 56 -12 18 7 25 3 18 -9 -8 -12 5 -26 28 -32 31 -8 38 -4 30 19 -17 44 23 107 69 107 46 0 53 70 11 125 -25 33 -29 33 -59 -10 -26 -38 -34 -40 -51 -16 -13 20 -13 38 2 55 15 19 13 26 -8 26 -32 0 -81 88 -61 108 43 43 147 -37 115 -88 -7 -11 5 -20 27 -20 22 0 44 -11 49 -25 5 -14 16 -18 26 -9 9 9 5 34 -9 57 -15 24 -20 66 -13 104 8 41 6 54 -6 36 -26 -38 -46 75 -21 122 12 23 11 35 -3 35 -13 0 -17 9 -10 20 7 11 4 20 -7 20 -11 0 -10 20 4 50 13 27 37 50 53 50 27 1 27 3 0 20 -27 17 -27 19 0 20 22 1 21 7 -7 23 -30 17 -32 25 -11 38 20 12 12 22 -29 38 -74 28 -79 27 -140 -20z m60 -105 c7 -8 -1 -14 -20 -14 -18 0 -33 -9 -33 -20 0 -11 -10 -20 -23 -20 -13 0 -18 6 -11 13 8 7 3 26 -10 41 -24 30 67 30 97 0z"/> <path d="M1895 3626 c-19 -5 -35 -22 -35 -39 0 -18 9 -24 25 -14 17 10 16 3 -3 -20 -15 -19 -22 -40 -15 -47 7 -7 13 -2 13 12 0 13 9 19 21 11 11 -7 15 -30 8 -51 -17 -53 8 -48 30 7 l18 45 2 -44 c0 -24 -8 -49 -19 -56 -30 -19 -24 -44 13 -59 19 -7 41 -1 51 13 13 20 23 17 46 -12 24 -32 34 -34 61 -11 29 24 28 28 -11 43 -24 9 -48 34 -54 56 -6 22 -18 35 -27 29 -10 -6 -27 26 -39 70 -12 45 -28 80 -36 79 -8 -2 -30 -7 -49 -12z"/> <path d="M5655 3607 c-56 -30 -78 -80 -26 -60 19 7 25 1 18 -18 -6 -16 -24 -29 -40 -29 -16 0 -24 -9 -17 -19 6 -11 38 -14 71 -8 37 8 59 4 59 -10 0 -13 -9 -23 -20 -23 -31 0 -23 -34 11 -48 17 -6 26 -3 19 8 -17 28 26 100 61 100 16 0 29 -10 29 -23 0 -13 -6 -18 -13 -11 -24 24 -63 -27 -52 -67 8 -32 16 -35 38 -16 22 18 34 17 53 -3 19 -20 19 -23 -1 -12 -14 8 -25 5 -25 -7 0 -28 26 -27 56 3 13 13 24 17 24 8 0 -9 14 -5 31 9 23 19 25 29 6 41 -13 8 -27 35 -31 60 -7 49 -48 86 -65 61 -6 -8 -41 -4 -79 8 -50 17 -59 26 -35 35 39 15 44 55 8 52 -14 -1 -50 -15 -80 -31z"/> <path d="M4421 3451 c-17 -20 -16 -29 3 -36 21 -8 21 -18 1 -52 -34 -57 -34 -57 36 -47 53 8 56 12 27 33 -31 23 -31 26 -1 37 36 14 25 65 -17 81 -15 6 -37 -1 -49 -16z"/> <path d="M1535 3368 c-27 -27 -16 -67 15 -55 17 6 30 1 30 -11 0 -12 -13 -22 -30 -22 -16 0 -30 -10 -30 -22 0 -12 14 -17 32 -10 17 7 53 12 80 12 33 0 48 11 46 35 -1 21 -5 25 -11 10 -6 -14 -23 -25 -38 -25 -16 0 -23 12 -16 30 7 19 0 30 -19 30 -17 0 -34 10 -38 21 -4 12 -13 15 -21 7z"/> <path d="M4098 3344 c-2 -8 -1 -22 1 -32 2 -10 -7 -25 -20 -33 -15 -9 -16 -18 -3 -26 11 -7 34 9 51 35 27 42 28 50 2 60 -16 6 -30 4 -31 -4z"/> <path d="M1978 3315 c-2 -14 -2 -32 0 -40 1 -8 -7 -15 -18 -15 -11 0 -20 -9 -20 -20 0 -54 70 -16 74 40 4 56 -31 90 -36 35z"/> <path d="M4160 3240 c0 -12 -9 -17 -20 -10 -11 7 -20 -5 -20 -27 0 -29 10 -37 40 -29 42 11 54 55 20 76 -11 7 -20 2 -20 -10z"/> <path d="M1548 3217 c-8 -13 5 -39 31 -60 59 -48 80 -47 66 4 -6 25 -21 37 -38 31 -15 -6 -27 -3 -27 7 0 10 11 22 25 28 15 6 12 10 -9 11 -18 1 -40 -8 -48 -21z"/> <path d="M5240 3171 c0 -18 -12 -25 -30 -18 -16 6 -30 1 -30 -11 0 -12 10 -22 21 -22 12 0 16 -9 9 -20 -7 -11 2 -20 19 -20 21 0 31 19 31 60 0 33 -4 60 -10 60 -5 0 -10 -13 -10 -29z"/> <path d="M4470 3147 c36 -36 -6 -84 -49 -58 -10 7 -25 1 -33 -12 -13 -22 104 -11 127 11 14 14 -35 92 -57 92 -12 0 -6 -15 12 -33z"/> <path d="M1615 3025 c44 -99 66 -127 87 -114 10 6 18 -5 18 -25 1 -27 5 -29 17 -10 9 15 12 50 7 79 -10 52 -11 52 -26 9 -21 -54 -30 -55 -44 -4 -6 22 -2 35 8 29 10 -6 18 -3 18 8 0 11 -11 24 -25 30 -20 8 -20 10 0 11 14 1 43 -16 65 -38 32 -32 40 -34 40 -10 0 17 -22 41 -50 54 -27 12 -50 30 -50 39 0 9 -22 17 -50 17 l-49 0 34 -75z"/> <path d="M4110 3005 c6 -87 8 -90 41 -57 25 25 26 37 5 71 -35 56 -51 51 -46 -14z"/> <path d="M4440 3027 c-27 -15 -39 -27 -25 -27 14 0 25 -24 25 -53 0 -30 6 -47 14 -39 8 8 15 38 15 68 1 44 9 53 46 48 53 -8 61 8 10 20 -19 5 -57 -3 -85 -17z"/> <path d="M3782 2941 c2 -34 6 -39 12 -16 10 41 16 42 67 14 40 -21 50 -7 23 35 -30 47 -104 22 -102 -33z"/> <path d="M3790 2865 c11 -8 21 -26 22 -40 6 -73 10 -85 28 -85 11 0 21 25 21 55 2 46 4 49 17 16 11 -27 19 -31 30 -14 23 37 -25 83 -85 83 -29 0 -44 -7 -33 -15z"/> <path d="M1706 2818 c-30 -30 10 -98 48 -84 22 9 22 17 2 42 -22 26 -21 29 2 15 18 -11 24 -8 18 10 -12 37 -43 44 -70 17z"/> <path d="M4582 2785 c-1 -14 -1 -32 -1 -40 1 -8 -19 -21 -45 -28 -46 -13 -46 -13 4 -15 28 -1 64 7 80 18 18 11 20 20 6 20 -12 0 -27 16 -32 35 -5 19 -10 24 -12 10z"/> <path d="M1751 2661 c-7 -11 -3 -39 10 -62 12 -23 17 -55 11 -71 -6 -15 -2 -28 9 -28 10 0 20 11 20 25 1 14 6 44 10 68 9 48 -39 102 -60 68z"/> <path d="M4880 2657 c0 -130 46 -275 82 -256 47 25 48 49 2 116 -20 29 -34 78 -32 108 4 37 -4 55 -23 55 -16 0 -29 -11 -29 -23z"/> <path d="M4000 2630 c0 -16 -9 -30 -20 -30 -11 0 -20 -10 -20 -21 0 -12 9 -16 20 -9 11 7 20 3 20 -9 0 -11 -13 -21 -30 -21 -16 0 -30 -8 -30 -18 0 -10 19 -13 42 -7 28 7 38 22 31 48 -6 26 2 37 28 37 25 0 34 10 26 30 -6 17 -24 30 -39 30 -15 0 -28 -13 -28 -30z"/> <path d="M1929 2545 c5 -120 11 -132 47 -93 18 19 19 28 3 28 -15 0 -19 20 -11 55 9 38 7 46 -6 27 -14 -22 -21 -15 -28 30 -5 32 -7 11 -5 -47z"/> <path d="M5005 2605 c-16 -5 -19 -20 -7 -42 9 -18 23 -96 29 -173 9 -104 7 -128 -8 -92 -27 64 -42 44 -26 -36 7 -39 19 -56 27 -42 8 13 20 -21 27 -75 8 -55 19 -104 25 -111 7 -6 15 -64 18 -128 3 -64 12 -163 20 -221 10 -70 8 -105 -6 -105 -12 0 -1 -22 23 -49 23 -27 46 -40 50 -30 3 11 13 15 21 10 7 -4 27 1 43 12 22 15 23 22 4 30 -14 6 -25 24 -25 41 0 16 -13 54 -28 83 -38 70 -58 124 -64 173 -22 167 -21 190 5 190 15 0 27 14 27 30 0 19 19 30 50 30 31 0 50 -11 50 -30 0 -40 32 -38 48 2 7 17 12 33 12 36 0 2 -33 6 -74 9 -84 5 -126 33 -126 81 0 19 -9 43 -20 54 -10 10 -24 68 -29 129 -14 156 -37 234 -66 224z"/> <path d="M5881 2430 c0 -33 8 -118 19 -190 10 -71 24 -166 30 -210 21 -149 54 -360 60 -390 4 -16 6 74 5 200 0 127 -9 250 -18 275 -11 31 -8 45 8 46 14 1 7 10 -15 19 -22 9 -30 18 -17 19 17 1 15 33 -7 116 -39 150 -65 196 -65 115z"/> <path d="M3914 2412 c-6 -15 -6 -33 1 -40 19 -20 148 -14 136 6 -6 10 -40 14 -75 8 -57 -9 -61 -6 -38 22 15 18 18 32 7 32 -12 0 -26 -13 -31 -28z"/> <path d="M2191 2393 c-34 -25 -32 -27 27 -29 39 -1 62 7 57 21 -12 35 -43 38 -84 8z"/> <path d="M1930 2260 c-17 -27 6 -60 42 -60 24 0 25 -8 7 -42 -12 -23 -17 -47 -11 -53 7 -6 1 -26 -13 -43 -13 -18 -16 -25 -6 -17 20 17 71 -19 71 -50 0 -12 -10 -11 -27 2 -20 17 -26 15 -26 -7 0 -17 8 -30 18 -30 9 0 12 -9 5 -20 -13 -21 32 -19 50 2 6 6 28 22 50 34 39 23 39 24 -4 36 -49 14 -78 98 -69 208 4 53 0 63 -16 40 -14 -20 -20 -22 -21 -5 0 30 -33 33 -50 5z"/> <path d="M2290 2225 c36 -27 31 -65 -10 -65 -22 0 -40 -8 -40 -19 0 -10 25 -17 55 -15 43 3 54 -4 49 -33 -9 -49 28 -25 42 27 11 42 -51 120 -95 120 -14 -1 -14 -6 -1 -15z"/> <path d="M4935 2226 c-4 -9 3 -65 17 -126 l26 -110 -12 120 c-12 125 -16 143 -31 116z"/> <path d="M5360 2083 c0 -21 -13 -49 -29 -62 -34 -28 -19 -81 22 -81 16 0 25 -7 20 -15 -5 -9 2 -32 17 -52 25 -34 27 -34 40 6 7 22 21 41 31 41 28 0 23 -35 -6 -46 -19 -7 -18 -17 6 -41 39 -43 153 -56 167 -21 14 36 -28 60 -48 28 -11 -18 -26 -7 -48 37 -19 35 -49 63 -69 63 -47 0 -63 17 -50 52 8 19 28 24 64 15 29 -7 47 -6 40 1 -7 8 -38 18 -70 22 -31 4 -61 8 -67 9 -5 1 0 8 13 16 16 11 15 22 -5 41 -23 21 -28 19 -28 -13z"/> <path d="M3798 2095 c-18 -59 -10 -75 37 -75 50 0 50 1 15 40 -34 37 -48 47 -52 35z"/> <path d="M1428 1945 c4 -25 0 -50 -10 -56 -45 -28 -5 -109 54 -109 18 0 4 94 -23 150 -22 45 -27 49 -21 15z"/> <path d="M3860 1965 c0 -28 105 -46 129 -23 12 11 8 18 -10 18 -16 0 -49 6 -74 13 -25 6 -45 3 -45 -8z"/> <path d="M834 1928 c-20 -21 -17 -52 4 -39 10 6 22 1 26 -12 6 -17 19 -17 45 -3 24 14 29 25 14 34 -13 8 -23 3 -23 -11 0 -14 -10 -10 -26 10 -14 20 -32 29 -40 21z"/> <path d="M2050 1880 c-7 -33 -22 -55 -32 -49 -24 15 -23 5 11 -74 26 -58 30 -61 30 -20 1 38 7 43 27 26 18 -14 34 -15 46 -3 13 13 20 3 20 -30 0 -53 -22 -67 -38 -25 -25 67 -37 -102 -14 -193 53 -209 91 -272 164 -272 36 0 84 -5 106 -11 30 -8 49 5 75 49 35 58 35 59 -10 66 -25 3 -45 17 -45 29 0 13 -7 30 -15 39 -8 8 -15 -5 -15 -29 0 -37 -5 -40 -28 -19 -15 14 -20 29 -10 33 10 3 18 21 18 40 -1 24 -5 26 -17 7 -12 -18 -22 -11 -39 25 -15 34 -39 51 -71 51 -49 0 -48 -5 -36 153 2 27 21 47 52 55 46 12 48 17 26 66 -20 42 -26 46 -32 19 -3 -19 -17 -31 -30 -27 -13 5 -21 19 -18 32 3 12 -2 21 -10 20 -38 -6 -48 4 -27 30 19 22 16 27 -12 25 -20 -2 -34 8 -31 22 11 55 -33 21 -45 -35z"/> <path d="M5240 1865 c0 -14 9 -25 20 -25 11 0 20 -18 20 -40 0 -22 9 -40 20 -40 11 0 20 -18 20 -40 0 -27 13 -40 40 -40 23 0 40 -13 40 -32 0 -24 14 -30 58 -24 38 6 55 1 49 -14 -5 -13 5 -23 21 -23 31 0 55 58 35 86 -17 23 -58 31 -150 30 -57 0 -74 7 -66 27 6 15 -16 57 -48 94 -32 36 -59 55 -59 41z"/> <path d="M3270 1800 c-7 -22 -19 -37 -27 -32 -8 5 -14 -8 -14 -28 0 -20 8 -32 19 -25 11 7 13 -4 4 -27 -9 -24 -7 -31 4 -18 19 20 48 170 34 170 -4 0 -13 -18 -20 -40z"/> <path d="M3940 1786 c0 -49 22 -70 53 -50 13 8 15 30 6 54 -11 26 -17 30 -18 10 -1 -27 -4 -27 -21 0 -16 24 -19 22 -20 -14z"/> <path d="M1449 1721 c17 -19 24 -42 16 -51 -8 -9 1 -11 20 -4 19 7 35 5 35 -5 0 -10 -11 -22 -25 -27 -14 -5 -20 -14 -13 -22 15 -16 78 7 78 29 0 9 -12 28 -27 43 -14 14 -23 35 -20 46 4 11 -16 21 -44 23 -48 3 -49 0 -20 -32z"/> <path d="M3104 1714 c-12 -14 -15 -37 -5 -52 13 -22 19 -22 33 1 40 64 17 106 -28 51z"/> <path d="M3856 1696 c-8 -18 -5 -36 5 -40 10 -3 22 -34 26 -68 8 -73 27 -108 57 -108 13 0 12 11 -4 30 -14 17 -17 30 -7 30 9 0 4 9 -13 20 -27 17 -27 19 0 20 27 1 27 3 0 20 -20 13 -22 19 -5 20 14 0 25 14 25 32 0 20 -11 28 -29 21 -17 -6 -31 3 -35 23 -7 32 -8 32 -20 0z"/> <path d="M5891 1642 c-49 -80 25 -579 89 -597 23 -6 24 -4 4 10 -14 10 -20 33 -13 52 8 18 4 33 -9 33 -12 0 -22 10 -22 21 0 12 9 16 20 9 11 -7 20 2 20 19 0 17 -11 29 -25 26 -15 -3 -23 12 -19 39 3 24 -3 78 -14 120 -11 44 -13 112 -4 161 12 59 10 85 -6 85 -12 0 -8 9 8 20 18 12 20 20 6 20 -13 0 -29 -8 -35 -18z"/> <path d="M2620 1622 c0 -12 18 -22 40 -22 22 0 40 -9 40 -20 0 -29 54 -24 66 6 5 14 -5 26 -23 28 -18 1 -53 9 -78 16 -28 9 -45 6 -45 -8z"/> <path d="M1860 1606 c0 -12 -16 -28 -35 -34 -19 -6 -6 -8 30 -5 76 7 74 10 29 -43 -37 -42 -37 -42 -71 -2 -42 49 -74 33 -71 -38 0 -30 6 -43 11 -29 6 14 24 25 40 25 16 0 24 -8 19 -18 -6 -9 16 -23 48 -29 89 -18 73 -46 -34 -60 -51 -7 -107 -26 -125 -42 -23 -21 -40 -23 -61 -8 -23 15 -24 23 -5 30 43 17 27 50 -20 43 -47 -6 -55 -91 -10 -119 11 -7 14 -23 6 -35 -7 -12 0 -22 17 -22 16 0 35 9 42 20 7 12 22 15 32 9 11 -7 33 -2 49 12 23 19 29 18 29 -9 0 -17 10 -32 22 -32 13 0 19 21 13 49 -13 69 156 137 218 88 14 -12 27 -7 34 12 6 17 3 31 -8 31 -10 0 -17 11 -14 25 3 13 -15 27 -39 31 -42 6 -82 74 -58 99 7 6 12 -3 12 -22 0 -47 31 -41 35 7 2 36 -23 47 -88 38 -7 -1 -20 11 -29 25 -12 18 -17 19 -18 3z"/> <path d="M5712 1597 c6 -9 -4 -17 -21 -17 -27 0 -41 -36 -33 -85 1 -8 -7 -15 -18 -15 -26 0 -26 -46 1 -73 33 -33 104 8 141 81 38 74 24 121 -37 124 -24 2 -39 -5 -33 -15z"/> <path d="M1529 1588 c-27 -11 -17 -150 12 -168 26 -17 179 22 179 44 0 9 -9 16 -20 16 -11 0 -20 14 -20 31 0 17 -9 26 -20 19 -12 -7 -15 -21 -9 -31 19 -31 -24 -21 -51 11 -13 16 -33 25 -42 19 -27 -17 -22 19 6 47 24 24 7 29 -35 12z"/> <path d="M3551 1578 c10 -16 -7 -18 -53 -9 l-68 14 57 -31 c48 -27 61 -27 84 -4 24 24 23 30 -3 40 -19 7 -25 3 -17 -10z"/> <path d="M2527 1530 c-6 -16 -17 -26 -25 -21 -31 19 -10 -122 23 -158 19 -21 35 -47 35 -57 0 -10 14 -8 30 6 42 35 37 58 -10 46 -50 -13 -53 26 -5 81 33 38 33 39 -1 27 -22 -8 -31 -6 -24 6 7 11 28 20 46 20 19 0 48 10 64 22 30 21 13 19 -100 -13 -31 -9 -37 -4 -27 21 7 18 25 28 40 22 15 -6 27 -2 27 9 0 31 -60 22 -73 -11z"/> <path d="M3442 1482 c-21 -21 -45 -33 -54 -25 -8 7 -9 3 -2 -9 20 -35 129 -30 143 6 10 28 7 28 -22 4 -30 -25 -33 -23 -22 17 14 55 6 56 -43 7z"/> <path d="M3600 1500 c17 -11 20 -20 8 -20 -13 0 -19 -21 -13 -47 9 -49 -42 -90 -66 -52 -6 10 -25 19 -43 19 -23 0 -25 -7 -9 -26 12 -14 16 -45 11 -67 -15 -57 37 -73 135 -44 60 18 75 31 65 55 -7 18 -23 70 -34 117 -14 56 -32 85 -52 85 -28 -1 -28 -3 -2 -20z m26 -180 c-11 -42 -55 -54 -76 -20 -18 29 7 60 49 60 27 0 34 -11 27 -40z"/> <path d="M1400 1460 c0 -41 -29 -54 -49 -22 -6 10 0 24 14 30 14 6 7 9 -15 6 -28 -3 -46 -27 -59 -79 -14 -57 -28 -75 -60 -75 -34 1 -36 4 -11 22 24 17 25 20 1 13 -43 -12 -49 -55 -8 -56 34 -2 33 -3 -3 -19 -22 -9 -31 -18 -19 -19 82 -5 299 175 257 214 -37 35 -48 31 -48 -15z"/> <path d="M5460 1439 c0 -60 28 -80 48 -34 7 17 10 15 9 -5 -4 -64 4 -100 21 -100 9 0 17 24 17 54 0 30 10 58 23 62 12 4 22 17 22 28 0 13 -12 11 -30 -4 -24 -20 -32 -19 -41 6 -24 61 -69 57 -69 -7z"/> <path d="M3901 1395 c3 -82 30 -132 44 -80 6 24 0 48 -12 54 -17 8 -16 14 2 23 35 16 31 48 -5 48 -18 0 -29 -18 -29 -45z"/> <path d="M5163 1313 c13 -108 53 -435 56 -448 1 -3 9 -5 18 -5 24 0 21 67 -5 87 -16 11 -15 19 3 26 35 15 31 207 -6 256 -16 21 -24 57 -18 80 9 33 8 35 -9 11 -17 -24 -21 -17 -22 34 0 35 -7 68 -15 73 -9 5 -9 -46 -2 -114z"/> <path d="M3840 1404 c-16 -5 -37 -22 -46 -37 -9 -15 -27 -22 -40 -16 -13 7 -8 -1 12 -17 20 -17 28 -33 17 -37 -11 -4 -8 -17 5 -29 18 -17 35 -15 63 7 33 26 33 28 4 18 -27 -9 -35 -1 -35 38 0 27 9 49 19 49 11 0 14 -16 7 -35 -9 -27 -6 -30 13 -12 33 30 19 83 -19 71z"/> <path d="M3303 1380 c28 -17 60 -90 65 -150 2 -21 92 -42 92 -21 0 6 -9 27 -20 46 -11 19 -29 60 -39 90 -16 42 -33 55 -76 54 -44 0 -49 -4 -22 -19z"/> <path d="M3215 1345 c-21 -25 -26 -48 -13 -80 27 -72 56 -52 53 35 -2 44 -5 80 -6 80 -2 0 -17 -16 -34 -35z"/> <path d="M1520 1344 c-16 -5 -37 -21 -45 -35 -8 -13 -46 -30 -84 -37 -87 -17 -95 -32 -45 -80 40 -38 40 -38 29 6 -10 37 -7 40 17 21 22 -19 28 -18 28 1 0 16 19 21 51 15 39 -8 49 -2 44 23 -3 17 7 43 24 55 36 28 24 46 -19 31z"/> <path d="M3064 1297 c5 -35 -6 -43 -63 -50 -38 -4 -77 -19 -87 -32 -13 -20 -19 -20 -27 0 -6 15 -29 20 -59 13 -49 -13 -69 20 -23 39 19 7 19 10 1 11 -14 1 -34 -16 -46 -38 -18 -35 -15 -40 24 -40 35 -1 39 -5 18 -18 -16 -10 -40 -14 -55 -8 -15 6 -27 0 -27 -12 0 -12 16 -22 35 -23 31 0 30 -3 -5 -23 -22 -12 -47 -32 -55 -44 -10 -15 -14 -13 -15 4 0 15 -9 21 -20 14 -12 -7 -15 -21 -9 -31 18 -30 -25 -22 -58 11 -19 19 -35 23 -43 10 -7 -11 -3 -20 9 -20 11 0 21 -13 21 -29 0 -16 16 -38 35 -49 33 -20 33 -21 -1 -21 -54 -1 -103 -53 -63 -68 40 -16 36 -47 -11 -88 -48 -40 -51 -65 -10 -65 17 0 30 -9 30 -19 0 -11 13 -15 30 -8 44 17 85 -84 54 -134 -36 -58 -29 -95 8 -42 25 36 37 40 60 22 43 -37 35 -99 -13 -99 -52 0 -119 35 -119 62 0 34 -122 283 -134 271 -6 -6 9 -52 33 -101 44 -92 48 -127 11 -116 -11 3 2 -12 28 -33 31 -24 42 -47 32 -63 -10 -16 -3 -36 18 -51 19 -14 35 -33 35 -42 1 -9 9 -15 19 -12 10 3 18 -5 18 -17 0 -16 10 -15 30 2 17 14 37 20 44 13 7 -7 3 -13 -8 -13 -11 0 -19 -20 -17 -45 1 -25 14 -43 27 -40 13 3 24 -5 24 -16 0 -13 -17 -16 -40 -9 -31 10 -40 4 -40 -29 0 -22 9 -41 20 -41 11 0 19 -7 18 -15 -15 -102 83 -159 161 -93 64 54 78 88 36 88 -39 0 -84 82 -56 100 16 9 6 25 -28 47 -54 36 -68 102 -26 121 20 10 20 14 0 24 -14 6 -21 18 -16 26 5 8 0 53 -11 100 -24 107 5 161 58 109 21 -21 35 -25 40 -10 12 36 64 27 64 -10 0 -19 6 -28 13 -21 19 19 90 -25 76 -48 -22 -35 133 -142 163 -113 19 20 25 95 8 105 -10 6 -16 22 -12 36 3 13 2 17 -3 9 -16 -28 -49 -15 -38 14 6 17 -3 44 -20 61 -19 19 -25 45 -17 66 10 23 18 26 24 9 5 -14 27 -25 48 -25 38 0 46 -18 39 -87 -3 -29 5 -34 37 -24 23 8 69 14 101 15 33 1 55 10 49 19 -6 9 -1 17 11 17 11 0 19 10 16 23 -3 13 13 29 35 35 52 15 55 93 4 89 -20 -2 -32 2 -25 8 16 17 -50 85 -82 85 -15 0 -28 11 -29 25 0 14 -12 -6 -26 -44 -26 -73 -65 -55 -42 19 7 22 4 40 -8 40 -11 0 -16 16 -10 35 9 30 8 30 -13 -2 -19 -30 -18 -41 4 -55 21 -13 19 -17 -10 -18 -30 0 -34 11 -23 65 8 43 6 56 -6 38 -13 -19 -23 -21 -33 -5 -7 12 -33 22 -57 23 -40 1 -39 3 12 31 37 20 53 42 46 64 -5 19 -16 68 -23 109 -14 80 -77 111 -65 32z m16 -127 c0 -51 -27 -67 -51 -29 -16 27 4 79 30 79 12 0 21 -22 21 -50z m-77 -133 c75 -87 23 -217 -88 -217 -124 0 -179 126 -94 216 52 56 134 56 182 1z m373 -135 c3 -1 -4 -20 -16 -42 -18 -34 -15 -40 19 -40 23 0 41 -8 41 -17 0 -10 -25 -14 -55 -10 -48 7 -50 5 -15 -13 40 -20 40 -20 0 -15 -32 4 -40 21 -40 78 -1 68 7 74 66 59z m-676 -102 c0 -11 -13 -20 -30 -20 -16 0 -37 -1 -44 -1 -8 -1 -18 8 -22 20 -4 11 16 21 44 21 29 0 52 -9 52 -20z m650 -60 c28 -12 31 -18 10 -20 -16 -2 -49 -7 -73 -11 -25 -5 -48 4 -54 21 -13 34 50 39 117 10z"/> <path d="M725 1255 c23 -64 23 -64 35 -15 7 28 3 57 -9 65 -41 28 -49 14 -26 -50z"/> <path d="M2007 1306 c-24 -5 -48 -28 -55 -54 -6 -25 -34 -56 -62 -69 -63 -28 -97 -30 -80 -3 16 26 4 25 -53 -5 -28 -15 -49 -45 -51 -75 -2 -27 1 -35 6 -17 13 44 102 42 114 -3 5 -19 -1 -34 -14 -34 -73 1 -113 -9 -102 -26 7 -11 1 -20 -14 -21 -14 0 -5 -12 20 -26 25 -14 39 -31 31 -39 -7 -8 -4 -14 8 -14 12 0 22 -25 21 -55 -1 -77 9 -107 49 -153 19 -22 35 -59 35 -83 0 -24 14 -55 30 -69 17 -14 30 -42 30 -62 0 -24 10 -33 29 -26 20 8 25 0 17 -30 -6 -24 -1 -42 12 -42 12 0 22 -21 22 -48 0 -26 14 -58 30 -72 17 -14 30 -38 30 -55 0 -50 109 -225 140 -225 27 1 27 3 0 20 -22 14 -23 19 -4 20 15 0 21 9 14 20 -7 11 6 20 29 20 23 0 41 13 41 30 0 17 -13 30 -30 30 -16 0 -30 13 -30 29 0 18 -12 25 -30 18 -21 -8 -30 2 -30 33 0 26 10 40 25 34 14 -5 42 0 63 11 26 14 42 11 55 -8 14 -22 20 -23 34 0 14 21 20 20 30 -5 6 -18 22 -32 35 -32 12 0 17 13 11 30 -12 31 17 42 35 13 10 -16 132 -7 132 10 0 72 -122 135 -154 80 -46 -78 -149 -51 -181 47 -13 39 -21 52 -20 30 2 -22 -3 -51 -12 -65 -9 -15 -6 -25 8 -25 18 0 18 -8 -1 -30 -14 -16 -35 -30 -48 -30 -26 0 -82 117 -64 134 7 7 12 -2 12 -21 0 -38 31 -44 52 -10 9 14 5 18 -9 9 -13 -8 -23 -5 -23 6 0 11 16 29 35 41 42 24 -1 65 -49 47 -41 -16 -97 56 -89 112 5 38 0 45 -28 35 -27 -11 -32 -5 -23 27 6 22 3 45 -6 50 -9 6 -21 -5 -26 -25 -8 -31 -23 58 -16 100 1 8 -10 15 -25 15 -14 0 -26 11 -27 25 0 14 -18 63 -41 109 l-41 84 90 14 c49 7 134 8 187 2 99 -12 155 12 77 32 -24 7 -36 21 -29 33 8 12 22 16 32 10 11 -6 19 -2 19 10 0 11 -10 21 -22 21 -17 0 -16 8 1 28 18 23 15 31 -18 42 -22 7 -46 35 -53 61 -7 27 -18 48 -25 46 -7 -1 -32 -6 -56 -11z m68 -61 c5 -16 -11 -25 -43 -25 -34 0 -52 11 -52 31 0 38 82 32 95 -6z m-27 -57 c43 -17 40 -42 -8 -68 -35 -19 -40 -15 -40 29 0 55 2 57 48 39z"/> <path d="M3825 1236 c-63 -31 -60 -96 5 -96 28 0 50 -8 50 -18 0 -9 19 -22 42 -28 23 -6 36 -21 29 -33 -7 -11 -3 -21 9 -21 12 0 20 -11 19 -25 -11 -78 0 -96 42 -70 44 27 46 105 2 105 -14 0 -38 16 -52 35 -14 19 -37 35 -50 35 -15 0 -20 13 -13 32 7 17 12 45 12 61 0 17 10 23 23 15 15 -9 18 -5 7 12 -13 21 -21 19 -40 -7 -30 -41 -53 -43 -37 -3 13 35 12 35 -48 6z"/> <path d="M3660 1206 c0 -24 -6 -28 -22 -12 -65 65 -344 -81 -296 -156 14 -23 17 -22 18 4 0 26 18 31 92 26 80 -6 89 -3 67 23 -13 16 -19 36 -12 43 7 7 13 2 13 -10 0 -56 75 -64 129 -13 29 27 65 49 79 49 14 0 25 14 25 30 0 17 -7 30 -16 30 -9 0 -17 -10 -17 -21 0 -12 -9 -16 -20 -9 -12 7 -15 21 -9 31 6 11 2 19 -10 19 -11 0 -21 -15 -21 -34z"/> <path d="M5700 1212 c0 -54 23 -89 52 -78 22 8 24 17 6 38 -18 22 -17 28 5 28 21 1 21 5 -3 20 -42 27 -60 25 -60 -8z"/> <path d="M2361 1121 c-107 -96 -108 -99 -81 -154 15 -31 28 -63 29 -71 4 -38 88 -94 99 -65 6 16 29 29 51 29 41 0 57 57 26 88 -8 9 -15 35 -15 59 0 28 -12 42 -34 40 -21 -1 -32 12 -30 35 3 45 45 50 61 8 7 -16 21 -30 32 -30 11 0 14 14 8 31 -7 19 -2 28 15 25 14 -3 27 3 27 14 1 11 9 32 19 48 14 21 10 23 -19 6 -28 -15 -43 -13 -58 8 -17 22 -42 9 -130 -71z"/> <path d="M4125 1186 c2 -24 11 -38 21 -32 10 6 14 -6 10 -27 -4 -20 -23 -36 -42 -34 -51 4 -41 -23 17 -50 28 -13 47 -31 41 -40 -6 -9 2 -16 18 -16 23 0 23 8 2 51 -27 56 -20 124 15 146 12 8 15 21 6 29 -8 9 -24 3 -34 -14 -17 -25 -21 -25 -38 1 -15 23 -19 21 -16 -14z"/> <path d="M2278 1142 c-26 -21 -43 -44 -36 -51 7 -7 34 5 60 27 26 21 43 44 36 51 -7 7 -34 -5 -60 -27z"/> <path d="M3744 1078 c5 -15 18 -29 28 -30 10 -1 34 -9 54 -17 41 -18 70 1 43 28 -36 35 -135 50 -125 19z"/> <path d="M3472 1005 c-12 -12 11 -85 27 -85 8 0 32 19 52 41 34 38 40 39 61 9 13 -17 49 -36 81 -42 95 -17 103 -44 32 -106 -35 -31 -61 -60 -57 -64 5 -4 -5 -20 -20 -34 -23 -21 -28 -20 -28 7 0 18 -11 28 -25 23 -14 -5 -23 -20 -20 -33 9 -37 -46 -82 -70 -58 -15 15 -33 15 -58 0 -47 -26 -41 -50 15 -64 81 -19 67 -57 -21 -55 -44 0 -81 9 -81 19 0 10 -27 4 -61 -13 -72 -38 -61 -70 25 -70 100 0 212 42 223 83 5 22 21 33 38 26 18 -7 43 11 65 44 20 30 71 91 113 135 42 44 77 91 77 105 0 13 9 30 20 37 31 19 -1 -55 -45 -104 -22 -23 -33 -53 -26 -65 7 -11 4 -21 -7 -21 -12 0 -35 -27 -52 -61 -18 -33 -61 -78 -96 -100 -35 -21 -55 -39 -44 -40 41 -1 -83 -57 -155 -70 -41 -7 -75 -21 -75 -31 0 -10 -13 -18 -29 -18 -16 0 -34 -8 -40 -19 -7 -10 13 -17 44 -15 71 5 74 -45 5 -80 l-50 -25 63 -1 c35 0 78 -5 95 -12 22 -8 32 -1 32 22 0 30 12 33 80 22 69 -11 80 -7 80 24 0 20 27 62 60 94 33 32 60 65 60 74 0 9 18 34 40 56 22 22 40 56 40 75 0 36 -38 -2 -126 -124 -50 -71 -111 -101 -126 -64 -7 18 24 62 81 114 50 46 91 97 91 112 0 16 14 33 30 40 17 6 30 21 30 32 0 12 23 51 50 87 51 67 66 128 31 128 -11 0 -15 14 -8 30 6 17 2 30 -9 30 -11 0 -24 -10 -28 -23 -6 -17 -29 -15 -87 5 -71 25 -279 41 -297 23z m58 -607 c16 -48 13 -52 -39 -61 -47 -8 -69 59 -28 85 41 26 53 22 67 -24z"/> <path d="M5950 995 c-5 -14 -1 -56 9 -95 17 -71 21 -63 28 55 3 64 -20 89 -37 40z"/> <path d="M91 942 c-52 -21 -5 -49 52 -31 28 9 38 6 28 -9 -7 -12 -5 -22 4 -22 38 0 43 27 10 52 -40 30 -41 31 -94 10z"/> <path d="M2100 929 c0 -17 23 -54 51 -82 43 -43 51 -67 45 -142 -5 -75 0 -92 31 -96 20 -3 71 -29 114 -57 99 -65 105 -65 64 5 -18 31 -59 67 -91 79 -54 21 -58 28 -45 95 11 61 7 78 -29 104 -29 20 -37 36 -23 50 34 34 2 75 -59 75 -39 0 -58 -10 -58 -31z"/> <path d="M5480 945 c1 -34 37 -69 58 -56 37 22 25 71 -18 71 -22 0 -40 -7 -40 -15z"/> <path d="M412 925 c-9 -8 -48 -15 -89 -15 -73 0 -105 -46 -45 -66 19 -6 22 -1 11 18 -14 23 -10 23 18 0 31 -26 41 -23 89 25 29 29 48 53 42 53 -6 0 -18 -7 -26 -15z"/> <path d="M3555 866 c-19 -5 -35 -18 -35 -29 0 -31 126 -10 137 23 8 27 5 27 -28 0 -21 -17 -30 -19 -22 -5 16 26 9 27 -52 11z"/> <path d="M4085 850 c-14 -16 -39 -23 -55 -17 -17 6 -30 1 -30 -11 0 -12 -19 -22 -41 -22 -24 0 -36 -9 -28 -21 19 -32 -46 -120 -80 -107 -24 10 -25 3 -5 -39 21 -46 25 -47 38 -14 7 20 23 43 34 50 28 17 106 -26 91 -50 -17 -28 18 -23 50 6 21 20 24 19 17 -5 -6 -16 -32 -30 -60 -29 -38 0 -48 -8 -41 -36 7 -27 16 -30 36 -14 18 15 29 15 39 -1 10 -16 22 -15 42 1 19 16 28 17 28 2 0 -27 -70 -66 -87 -49 -7 7 -13 2 -13 -11 0 -12 18 -23 40 -23 22 0 40 9 40 20 0 11 8 18 18 15 10 -3 18 3 18 13 0 10 13 25 27 34 22 14 21 18 -3 18 -27 1 -27 3 0 20 25 16 22 19 -13 20 -23 0 -48 14 -55 31 -6 17 -21 26 -33 18 -12 -7 -40 6 -61 29 -26 27 -31 42 -14 42 18 1 17 6 -4 20 -24 16 -21 19 15 20 25 0 45 -9 45 -19 0 -11 14 -14 31 -8 17 7 27 25 21 40 -6 15 -3 27 7 27 10 0 32 5 49 12 23 9 32 0 32 -30 0 -23 9 -42 20 -42 11 0 20 23 20 50 0 37 -11 50 -40 50 -22 0 -40 9 -40 20 0 28 -26 24 -55 -10z"/> <path d="M1660 800 c-12 -22 -20 -52 -18 -65 7 -56 -4 -69 -52 -64 -30 3 -58 -8 -69 -28 -16 -27 -20 -28 -21 -3 -1 27 -3 27 -20 0 -14 -23 -6 -33 35 -44 63 -17 203 94 165 132 -26 26 -26 52 1 52 12 0 16 -8 10 -18 -12 -19 48 -50 65 -32 6 5 -1 10 -15 10 -14 0 -21 11 -16 25 19 48 -41 80 -65 35z"/> <path d="M5580 780 c26 -17 25 -19 -4 -20 -33 0 -70 -72 -48 -94 14 -15 90 76 91 109 1 14 -15 25 -34 25 -30 -1 -31 -3 -5 -20z"/> <path d="M1680 599 c-58 -50 -83 -59 -145 -52 -42 5 -70 1 -64 -9 6 -10 25 -18 43 -18 26 0 27 -5 4 -35 -15 -19 -19 -28 -9 -20 9 8 29 5 44 -7 20 -17 39 -7 82 43 30 36 77 87 103 112 69 68 24 57 -58 -14z"/> <path d="M2160 577 c0 -12 -15 -34 -34 -47 -30 -22 -27 -25 22 -19 39 4 72 -9 105 -42 27 -27 58 -49 69 -49 12 0 34 -14 51 -30 37 -37 67 -22 67 33 0 34 -9 39 -48 29 -37 -9 -50 -2 -59 31 -8 31 -22 39 -52 32 -30 -8 -41 -2 -41 25 0 20 -14 41 -32 48 -43 17 -48 15 -48 -11z"/> <path d="M3866 507 c-14 -29 -20 -60 -14 -70 6 -9 1 -17 -11 -17 -11 0 -21 10 -21 21 0 12 -9 16 -20 9 -32 -20 -23 -47 30 -94 28 -24 50 -65 50 -91 0 -63 33 -40 70 48 22 53 24 81 8 111 -12 21 -16 45 -9 52 17 16 52 -39 39 -60 -6 -8 6 -9 25 -2 21 8 26 16 11 21 -13 5 -24 21 -24 37 0 15 -13 28 -29 28 -20 0 -25 12 -17 35 12 30 9 31 -18 9 -20 -16 -35 -18 -39 -5 -4 11 -18 -4 -31 -32z"/> <path d="M1807 470 c-7 -20 -1 -42 15 -53 20 -14 15 -16 -17 -7 -43 12 -56 -5 -47 -57 2 -10 -9 -13 -25 -7 -37 14 -73 -23 -73 -75 1 -34 4 -36 20 -11 11 17 20 21 21 10 1 -11 10 -2 19 20 14 33 17 34 19 6 0 -18 10 -39 21 -46 11 -7 14 1 8 19 -17 42 4 39 52 -9 22 -22 65 -40 96 -40 31 0 67 -11 80 -24 17 -17 24 -18 24 -1 0 34 -80 83 -117 72 -27 -9 -28 -7 -4 10 23 16 24 34 5 99 -30 98 -77 145 -97 94z"/> <path d="M1280 420 c-21 -14 -22 -19 -4 -20 14 0 33 -20 43 -45 10 -25 19 -34 20 -20 0 14 20 25 42 25 24 0 36 9 28 21 -7 11 -32 18 -56 15 -26 -4 -41 4 -38 19 6 30 4 30 -35 5z"/> <path d="M4060 395 c-1 -37 -4 -40 -22 -15 -19 27 -20 27 -10 0 7 -16 18 -46 24 -65 7 -19 27 -36 45 -37 21 -1 24 -5 8 -11 -14 -6 -25 -19 -25 -30 0 -11 8 -14 18 -8 10 6 23 0 29 -14 5 -14 11 -7 13 15 2 22 7 60 11 85 9 47 -20 63 -38 20 -9 -22 -21 51 -15 90 1 8 -7 15 -18 15 -11 0 -20 -20 -20 -45z"/> <path d="M3176 396 c13 -13 24 -39 24 -58 0 -18 13 -39 29 -45 20 -7 28 3 26 33 -3 56 -31 94 -71 94 -25 0 -27 -5 -8 -24z"/> <path d="M4380 327 c0 -20 -11 -27 -30 -20 -19 8 -31 -1 -31 -23 -2 -28 -5 -27 -19 6 -19 45 -27 11 -8 -38 10 -27 15 -28 42 -1 16 16 40 23 53 16 12 -7 16 -6 8 3 -8 9 0 27 18 40 30 22 30 25 0 36 -22 9 -33 2 -33 -19z"/> <path d="M55 300 c-41 -47 -25 -102 52 -183 28 -29 45 -58 38 -65 -6 -7 3 -12 22 -12 18 0 33 -8 33 -18 0 -10 16 -15 35 -12 19 4 42 8 50 8 18 2 -62 158 -90 175 -12 8 -15 4 -7 -10 9 -14 3 -18 -17 -11 -17 7 -31 21 -31 32 0 10 -15 34 -33 52 -21 21 -25 35 -10 40 26 8 32 44 7 44 -8 0 -30 -18 -49 -40z"/> <path d="M5717 274 c-9 -43 -2 -61 31 -79 74 -41 101 -34 48 12 -28 24 -55 61 -60 83 -6 33 -10 30 -19 -16z"/> <path d="M2985 230 c-14 -16 -36 -26 -50 -23 -14 4 -18 3 -10 -2 8 -5 15 -23 16 -42 0 -28 5 -27 32 7 26 32 30 33 20 5 -8 -25 2 -38 35 -46 26 -7 47 -23 46 -36 -2 -78 8 -90 67 -89 55 2 60 8 50 49 -14 55 -15 55 72 18 l67 -29 -60 -3 c-59 -2 -59 -2 -14 -24 57 -27 148 1 155 48 3 18 -12 38 -32 43 -25 7 -35 24 -30 50 5 23 -2 38 -16 36 -57 -11 -124 -39 -136 -58 -10 -15 -24 -13 -45 5 -28 22 -32 19 -33 -22 l-2 -47 -21 45 c-12 25 -33 45 -47 45 -35 0 -50 51 -23 78 12 12 13 22 3 21 -10 0 -30 -13 -44 -29z"/> <path d="M3611 229 c-38 -28 -37 -29 8 -29 36 0 41 -6 24 -27 -13 -15 -17 -32 -10 -39 17 -17 -49 -79 -71 -66 -9 7 -22 -4 -27 -23 -7 -30 8 -36 99 -40 102 -4 108 -2 95 38 -9 28 -6 37 8 29 12 -8 38 6 57 29 20 24 54 50 76 60 35 14 35 17 5 18 -45 1 -193 -91 -208 -130 -6 -16 -19 -29 -29 -29 -30 0 -20 38 22 80 58 58 14 175 -49 129z"/> <path d="M1833 184 c-10 -15 -30 -22 -45 -16 -36 14 -36 -3 1 -39 41 -42 119 -35 163 14 41 47 41 47 -65 4 -13 -6 -27 6 -31 27 -5 27 -11 30 -23 10z"/> <path d="M2502 175 c-1 -19 -15 -35 -32 -35 -16 0 -30 -9 -30 -19 0 -11 16 -15 35 -9 32 10 32 9 3 -15 -74 -63 -39 -97 99 -97 71 0 123 6 115 14 -8 8 -46 12 -85 9 -71 -6 -71 -6 -39 40 46 65 39 97 -8 37 -44 -56 -50 -48 -20 30 11 29 12 47 2 41 -10 -6 -23 0 -29 14 -6 15 -10 11 -11 -10z"/> <path d="M3411 179 c7 -11 32 -15 56 -9 29 9 34 7 17 -6 -23 -15 -54 -144 -35 -144 20 0 86 130 77 153 -6 15 -37 27 -69 27 -36 0 -54 -8 -46 -21z"/> <path d="M1665 99 c-29 -11 -40 -28 -33 -48 14 -36 48 -42 48 -8 0 12 16 35 35 49 40 30 16 34 -50 7z"/> <path d="M5551 102 c-23 -37 53 -70 226 -97 51 -7 66 -3 59 17 -5 15 -42 27 -90 28 -44 1 -104 17 -132 36 -29 18 -57 26 -63 16z"/> <path d="M5402 81 c-39 -24 -12 -81 38 -81 38 0 35 35 -8 94 -2 2 -15 -4 -30 -13z"/> <path d="M5932 69 c-46 -46 -39 -69 18 -64 50 4 72 35 25 35 -18 1 -18 5 2 18 17 11 20 22 7 30 -12 7 -35 -2 -52 -19z"/> <path d="M2310 61 c-22 -9 -47 -12 -55 -7 -8 4 -15 -5 -15 -21 0 -17 14 -27 35 -23 19 4 41 8 48 8 7 1 18 16 24 32 7 17 10 29 7 29 -2 -1 -22 -9 -44 -18z"/> <path d="M5228 42 c20 -21 52 -38 73 -36 21 1 33 6 28 11 -5 5 1 21 14 36 14 18 15 27 1 27 -11 0 -24 -10 -28 -21 -5 -15 -24 -15 -65 1 -58 22 -58 21 -23 -18z"/> <path d="M2870 20 c-30 -13 -18 -17 50 -18 65 -1 82 4 60 18 -36 23 -56 23 -110 0z"/> </g> </svg> 